# Max2Obj Version 4.0 Mar 10th, 2001
#
mtllib ./armchair-14.mtl
g
# object armchair-14 to come ...
#
v  0.004799 -0.009492 -0.049679
v  -0.510876 0.004958 -0.123691
v  -0.442456 0.004958 0.108268
v  -0.230777 0.004958 0.305683
v  0.004799 0.004958 0.4464
v  -0.510876 0.262198 -0.123691
v  -0.442456 0.262198 0.108268
v  -0.230777 0.262198 0.305683
v  0.004799 0.262198 0.4464
v  -0.416716 0.379373 -0.123691
v  -0.360912 0.379373 0.061188
v  -0.183698 0.379373 0.224139
v  0.004799 0.379373 0.35224
v  0.004799 0.422699 -0.049679
v  0.397107 0.004958 0.147744
v  0.510876 0.004958 -0.129553
v  0.227166 0.004958 0.326472
v  0.397107 0.262198 0.147744
v  0.510876 0.262198 -0.129553
v  0.227166 0.262198 0.326472
v  0.315563 0.379373 0.100665
v  0.418606 0.379373 -0.11078
v  0.180086 0.379373 0.244927
v  -0.404415 0.004958 -0.335179
v  -0.166284 0.004958 -0.431281
v  0.006383 0.004958 -0.344521
v  -0.404415 0.262198 -0.335179
v  -0.166284 0.262198 -0.431281
v  0.006383 0.262198 -0.344521
v  -0.335551 0.379373 -0.270962
v  -0.17449 0.379373 -0.33748
v  0.006383 0.379373 -0.250362
v  0.43009 0.004958 -0.388478
v  0.169655 0.004958 -0.446399
v  0.43009 0.262198 -0.388478
v  0.169654 0.262198 -0.446399
v  0.363509 0.379373 -0.321897
v  0.187621 0.379373 -0.353969
# 38 vertices

vt  0.871408 0.392959 -0.106601
vt  0.764725 0.350165 0.344664
vt  0.764112 0.393676 0.506947
vt  0.764112 0.44392 0.506947
vt  0.764724 0.487431 0.344664
vt  0.851134 0.350165 0.610294
vt  0.851104 0.393677 0.772577
vt  0.851104 0.44392 0.772577
vt  0.851134 0.487432 0.610294
vt  0.812655 0.363233 0.578819
vt  0.812769 0.39846 0.710203
vt  0.812769 0.439137 0.710203
vt  0.816346 0.492821 0.578818
vt  0.917218 0.420625 0.219869
vt  0.871408 0.392959 -0.106601
vt  0.764112 0.393676 0.506947
vt  0.764725 0.350165 0.344664
vt  0.764112 0.44392 0.506947
vt  0.764724 0.487431 0.344664
vt  0.851104 0.393677 0.772577
vt  0.851134 0.350165 0.610294
vt  0.851104 0.44392 0.772577
vt  0.851134 0.487432 0.610294
vt  0.812769 0.39846 0.710203
vt  0.812655 0.363233 0.578819
vt  0.812769 0.439137 0.710203
vt  0.816346 0.492821 0.578818
vt  0.917218 0.420625 0.219869
vt  0.871408 0.392959 -0.106601
vt  0.764112 0.393676 0.506947
vt  0.764725 0.350165 0.344664
vt  0.764112 0.44392 0.506947
vt  0.764724 0.487431 0.344664
vt  0.851104 0.393677 0.772577
vt  0.851134 0.350165 0.610294
vt  0.851104 0.44392 0.772577
vt  0.851134 0.487432 0.610294
vt  0.812769 0.39846 0.710203
vt  0.812655 0.363233 0.578819
vt  0.812769 0.439137 0.710203
vt  0.816346 0.492821 0.578818
vt  0.917218 0.420625 0.219869
vt  0.764112 0.393676 0.506947
vt  0.871408 0.392959 -0.106601
vt  0.764725 0.350165 0.344664
vt  0.764112 0.44392 0.506947
vt  0.764724 0.487431 0.344664
vt  0.851104 0.393677 0.772577
vt  0.851134 0.350165 0.610294
vt  0.851104 0.44392 0.772577
vt  0.851134 0.487432 0.610294
vt  0.812769 0.39846 0.710203
vt  0.812655 0.363233 0.578819
vt  0.812769 0.439137 0.710203
vt  0.816346 0.492821 0.578818
vt  0.917218 0.420625 0.219869
# 56 texture vertices

vn  -0.000103 -0.999999 -0.001637
vn  -0.757112 -1.141059 0.223322
vn  -1.576559 -2.607091 0.484877
vn  -1.130768 -2.927914 1.228414
vn  -0.823472 -1.032004 1.378596
vn  -2.111979 0.48645 0.627124
vn  -3.653814 0.876203 1.910486
vn  -2.644461 0.881193 3.320342
vn  -1.330523 0.706286 2.227464
vn  -1.449327 2.168113 0.437471
vn  -2.411783 3.682017 1.464565
vn  -1.712493 3.421655 2.109285
vn  -0.896698 2.101442 1.433744
vn  -0.000568 0.999918 -0.012784
vn  1.530622 -2.769358 0.645164
vn  0.828343 -1.024608 0.339849
vn  1.194619 -2.824187 1.157618
vn  3.66765 0.926231 2.120101
vn  2.011253 0.395837 0.868166
vn  2.683306 0.850072 3.224959
vn  2.346147 3.587474 1.522541
vn  1.596048 2.021607 0.777802
vn  1.761952 3.329032 2.101843
vn  -1.453203 -2.419858 -0.756884
vn  -0.591875 -2.29112 -1.541605
vn  0.755047 -2.027422 -1.50267
vn  -2.977027 0.851583 -2.659331
vn  -0.272874 0.746813 -3.82728
vn  1.382097 1.082441 -2.750604
vn  -1.930301 3.60506 -2.082707
vn  -0.032071 3.888342 -2.898693
vn  0.664188 2.711985 -1.355883
vn  1.538776 -2.091482 -0.50776
vn  0.334961 -2.363528 -1.621938
vn  2.832656 0.739638 -2.310736
vn  -0.260169 0.781718 -3.901763
vn  1.867537 3.365119 -2.051659
vn  -0.354514 4.032338 -2.905588
# 38 vertex normals

g armchair-14
usemtl straw_misc
s 1
f -38/-56/-38 -36/-54/-36 -37/-55/-37
f -38/-56/-38 -35/-53/-35 -36/-54/-36
f -38/-56/-38 -34/-52/-34 -35/-53/-35
s 9
f -37/-55/-37 -32/-50/-32 -33/-51/-33
f -37/-55/-37 -36/-54/-36 -32/-50/-32
f -36/-54/-36 -31/-49/-31 -32/-50/-32
f -36/-54/-36 -35/-53/-35 -31/-49/-31
f -35/-53/-35 -30/-48/-30 -31/-49/-31
f -35/-53/-35 -34/-52/-34 -30/-48/-30
s 1
f -33/-51/-33 -28/-46/-28 -29/-47/-29
f -33/-51/-33 -32/-50/-32 -28/-46/-28
f -32/-50/-32 -27/-45/-27 -28/-46/-28
f -32/-50/-32 -31/-49/-31 -27/-45/-27
f -31/-49/-31 -26/-44/-26 -27/-45/-27
f -31/-49/-31 -30/-48/-30 -26/-44/-26
f -25/-43/-25 -29/-47/-29 -28/-46/-28
f -25/-43/-25 -28/-46/-28 -27/-45/-27
f -25/-43/-25 -27/-45/-27 -26/-44/-26
f -24/-41/-24 -38/-42/-38 -23/-40/-23
f -22/-39/-22 -38/-42/-38 -24/-41/-24
f -34/-38/-34 -38/-42/-38 -22/-39/-22
s 9
f -21/-37/-21 -23/-40/-23 -20/-36/-20
f -24/-41/-24 -23/-40/-23 -21/-37/-21
f -19/-35/-19 -24/-41/-24 -21/-37/-21
f -22/-39/-22 -24/-41/-24 -19/-35/-19
f -30/-34/-30 -22/-39/-22 -19/-35/-19
f -34/-38/-34 -22/-39/-22 -30/-34/-30
s 1
f -18/-33/-18 -20/-36/-20 -17/-32/-17
f -21/-37/-21 -20/-36/-20 -18/-33/-18
f -16/-31/-16 -21/-37/-21 -18/-33/-18
f -19/-35/-19 -21/-37/-21 -16/-31/-16
f -26/-30/-26 -19/-35/-19 -16/-31/-16
f -30/-34/-30 -19/-35/-19 -26/-30/-26
f -17/-32/-17 -25/-29/-25 -18/-33/-18
f -18/-33/-18 -25/-29/-25 -16/-31/-16
f -16/-31/-16 -25/-29/-25 -26/-30/-26
f -15/-27/-15 -38/-28/-38 -37/-26/-37
f -14/-25/-14 -38/-28/-38 -15/-27/-15
f -13/-24/-13 -38/-28/-38 -14/-25/-14
s 9
f -12/-23/-12 -37/-26/-37 -33/-22/-33
f -15/-27/-15 -37/-26/-37 -12/-23/-12
f -11/-21/-11 -15/-27/-15 -12/-23/-12
f -14/-25/-14 -15/-27/-15 -11/-21/-11
f -10/-20/-10 -14/-25/-14 -11/-21/-11
f -13/-24/-13 -14/-25/-14 -10/-20/-10
s 1
f -9/-19/-9 -33/-22/-33 -29/-18/-29
f -12/-23/-12 -33/-22/-33 -9/-19/-9
f -8/-17/-8 -12/-23/-12 -9/-19/-9
f -11/-21/-11 -12/-23/-12 -8/-17/-8
f -7/-16/-7 -11/-21/-11 -8/-17/-8
f -10/-20/-10 -11/-21/-11 -7/-16/-7
f -29/-18/-29 -25/-15/-25 -9/-19/-9
f -9/-19/-9 -25/-15/-25 -8/-17/-8
f -8/-17/-8 -25/-15/-25 -7/-16/-7
f -38/-13/-38 -6/-14/-6 -23/-12/-23
f -38/-13/-38 -5/-11/-5 -6/-14/-6
f -38/-13/-38 -13/-10/-13 -5/-11/-5
s 9
f -23/-12/-23 -4/-9/-4 -20/-8/-20
f -23/-12/-23 -6/-14/-6 -4/-9/-4
f -6/-14/-6 -3/-7/-3 -4/-9/-4
f -6/-14/-6 -5/-11/-5 -3/-7/-3
f -5/-11/-5 -10/-6/-10 -3/-7/-3
f -5/-11/-5 -13/-10/-13 -10/-6/-10
s 1
f -20/-8/-20 -2/-5/-2 -17/-4/-17
f -20/-8/-20 -4/-9/-4 -2/-5/-2
f -4/-9/-4 -1/-3/-1 -2/-5/-2
f -4/-9/-4 -3/-7/-3 -1/-3/-1
f -3/-7/-3 -7/-2/-7 -1/-3/-1
f -3/-7/-3 -10/-6/-10 -7/-2/-7
f -25/-1/-25 -17/-4/-17 -2/-5/-2
f -25/-1/-25 -2/-5/-2 -1/-3/-1
f -25/-1/-25 -1/-3/-1 -7/-2/-7
# 72 faces

g
