# Max2Obj Version 4.0 Mar 10th, 2001
#
mtllib ./armchair-05.mtl
g
# object armchair-05 to come ...
#
v  0 0.808714 -0.024499
v  0.465598 0.379788 0.012944
v  0 0.379788 -0.452654
v  -0.465598 0.379788 0.012944
v  0 0.343116 0.441099
v  0 0.005696 0.012944
v  0.3301 0.693589 -0.003698
v  0 0.709888 -0.317156
v  -0.3301 0.693589 -0.003698
v  0 0.455625 0.083436
v  0.3301 0.056951 0.012944
v  0 0.056951 -0.317156
v  -0.3301 0.056951 0.012944
v  0 0.056951 0.343044
v  0.3301 0.379788 -0.317156
v  -0.3301 0.379788 -0.317156
v  -0.3301 0.363489 0.326402
v  0.3301 0.363489 0.326402
v  0.124997 0.806555 -0.112053
v  0.426766 0.504785 -0.112053
v  0.249994 0.629782 -0.23705
v  0.124997 0.504785 -0.413822
v  -0.124997 0.806555 -0.112053
v  -0.124997 0.504785 -0.413822
v  -0.249994 0.629782 -0.23705
v  -0.426766 0.504785 -0.112053
v  -0.124997 0.689202 0.018122
v  -0.426766 0.469965 0.100644
v  -0.249994 0.481821 0.117877
v  -0.124997 0.387433 0.319891
v  0.124997 0.689202 0.018122
v  0.124997 0.387433 0.319891
v  0.249994 0.481821 0.117877
v  0.426766 0.469965 0.100644
v  0.124997 0.005311 -0.112053
v  0.124997 0.254791 -0.413822
v  0.249994 0.129794 -0.23705
v  0.426766 0.254791 -0.112053
v  -0.124997 0.005311 -0.112053
v  -0.426766 0.254791 -0.112053
v  -0.249994 0.129794 -0.23705
v  -0.124997 0.254791 -0.413822
v  -0.124997 0.005311 0.137941
v  -0.124997 0.254791 0.43971
v  -0.249994 0.129794 0.262938
v  -0.426766 0.254791 0.137941
v  0.124997 0.005311 0.137941
v  0.426766 0.254791 0.137941
v  0.249994 0.129794 0.262938
v  0.124997 0.254791 0.43971
v  0.156246 0.79016 -0.017011
v  0.187495 0.736474 -0.174552
v  0 0.819498 -0.143302
v  0.43971 0.501214 -0.024353
v  0.43971 0.379788 -0.143302
v  0.356686 0.567284 -0.174552
v  0.187495 0.567284 -0.343742
v  0.156246 0.379788 -0.426766
v  0 0.536034 -0.426766
v  -0.187495 0.736474 -0.174552
v  -0.156246 0.79016 -0.017011
v  -0.156246 0.379788 -0.426766
v  -0.187495 0.567284 -0.343742
v  -0.356686 0.567284 -0.174551
v  -0.43971 0.379788 -0.143302
v  -0.43971 0.536034 0.012944
v  -0.187495 0.589783 0.050666
v  0 0.689122 0.019416
v  -0.43971 0.379788 0.16919
v  -0.356686 0.503125 0.133188
v  -0.187495 0.424372 0.233536
v  -0.156246 0.35045 0.422699
v  0 0.389344 0.30288
v  0.187495 0.589783 0.050666
v  0.156246 0.35045 0.422699
v  0.187495 0.424372 0.233536
v  0.356686 0.503125 0.133188
v  0.43971 0.379788 0.16919
v  0 0.005439 -0.143302
v  0.187495 0.036175 -0.174552
v  0.156246 0.005439 0.012944
v  0 0.223542 -0.426766
v  0.187495 0.192293 -0.343742
v  0.356686 0.192293 -0.174552
v  0.43971 0.223542 0.012944
v  -0.156246 0.005439 0.012944
v  -0.187495 0.036175 -0.174552
v  -0.43971 0.223542 0.012944
v  -0.356686 0.192293 -0.174551
v  -0.187495 0.192293 -0.343742
v  0 0.005439 0.16919
v  -0.187495 0.036175 0.200439
v  0 0.223542 0.452654
v  -0.187495 0.192293 0.36963
v  -0.356686 0.192293 0.200439
v  0.187495 0.036175 0.200439
v  0.356686 0.192293 0.200439
v  0.187495 0.192293 0.369629
# 98 vertices

vt  0.268887 0.254991 0.497779
vt  0.314859 0.176884 0.268449
vt  0.244099 0.088168 0.548573
vt  0.308749 0.096971 0.597795
vt  0.243255 0.088607 0.546248
vt  0.250732 0.083479 0.526589
vt  0.761146 0.470087 0
vt  0.246525 0.160733 0.424107
vt  0.268887 0.138161 0.502221
vt  0.323784 0.167535 0.527292
vt  0.247419 0.022828 0.406454
vt  0.336638 0.022215 0.381676
vt  0.232361 0.020202 0.634127
vt  0.307665 0.092393 0.597795
vt  0.25351 0.022226 0.384136
vt  0.256883 0.084873 0.526589
vt  0.20547 0.086088 0.515287
vt  0.311382 0.242185 0.351984
vt  0.226392 0.242185 0.351984
vt  0.268887 0.199562 0.137945
vt  0.295774 0.08929 0.526608
vt  0.296742 0.088035 0.527641
vt  0.226392 0.155943 0.355125
vt  0.311382 0.155943 0.355125
vt  0.75149 0.422958 0
vt  0.20511 0.083986 0.515287
vt  0.339761 0.022188 0.381676
vt  0.226566 0.020177 0.634127
vt  0.714017 0.479743 0
vt  0.770801 0.517215 0
vt  0.808274 0.46043 0
vt  0.246525 0.160733 0.424107
vt  0.293609 0.191943 0.414484
vt  0.26226 0.111326 0.522737
vt  0.293838 0.142039 0.505184
vt  0.281966 0.127235 0.563079
vt  0.293609 0.191943 0.414484
vt  0.281844 0.129234 0.563079
vt  0.293355 0.142512 0.505184
vt  0.260996 0.112126 0.522737
vt  0.254722 0.234018 0.295335
vt  0.227025 0.111657 0.514316
vt  0.240557 0.19929 0.247784
vt  0.254722 0.164615 0.297863
vt  0.283052 0.234018 0.295335
vt  0.283052 0.164615 0.297863
vt  0.297217 0.19929 0.247784
vt  0.227685 0.11203 0.514316
vt  0.742217 0.457596 0
vt  0.32914 0.065457 0.506673
vt  0.295013 0.043656 0.442893
vt  0.262558 0.065358 0.516852
vt  0.748655 0.489015 0
vt  0.263324 0.065957 0.509413
vt  0.295519 0.043937 0.435453
vt  0.327977 0.067465 0.506673
vt  0.780074 0.482578 0
vt  0.22952 0.063012 0.558668
vt  0.207014 0.043448 0.511183
vt  0.229353 0.065488 0.500992
vt  0.773636 0.451159 0
vt  0.227983 0.066062 0.508432
vt  0.202932 0.044358 0.518623
vt  0.229521 0.063256 0.558668
vt  0.271849 0.180513 0.346278
vt  0.290135 0.251155 0.424882
vt  0.292776 0.168537 0.473667
vt  0.310582 0.201307 0.412078
vt  0.244716 0.117845 0.516178
vt  0.266268 0.087482 0.545923
vt  0.27512 0.125013 0.498144
vt  0.304909 0.134965 0.539927
vt  0.326265 0.089378 0.552024
vt  0.30133 0.137993 0.574345
vt  0.301872 0.140282 0.574345
vt  0.292655 0.168655 0.473667
vt  0.27497 0.167508 0.346278
vt  0.24764 0.251155 0.424882
vt  0.325852 0.091879 0.552024
vt  0.304395 0.135938 0.539927
vt  0.274321 0.125685 0.498144
vt  0.265196 0.088432 0.544063
vt  0.24365 0.118197 0.516178
vt  0.24764 0.218809 0.232837
vt  0.268887 0.231976 0.281173
vt  0.222732 0.087846 0.533537
vt  0.22051 0.123348 0.469697
vt  0.226392 0.199064 0.353555
vt  0.24764 0.179898 0.234254
vt  0.24764 0.147052 0.428673
vt  0.230997 0.084429 0.520938
vt  0.268887 0.166784 0.283547
vt  0.290135 0.218809 0.232837
vt  0.290135 0.147052 0.428673
vt  0.228101 0.084784 0.520938
vt  0.290135 0.179898 0.234254
vt  0.311382 0.199064 0.353555
vt  0.220329 0.124399 0.469697
vt  0.223049 0.088363 0.535397
vt  0.741509 0.474111 0
vt  0.732753 0.451351 0
vt  0.29359 0.022508 0.394065
vt  0.757122 0.45045 0
vt  0.302645 0.059371 0.489735
vt  0.301626 0.061674 0.489735
vt  0.315443 0.054313 0.467948
vt  0.275712 0.054449 0.476687
vt  0.245089 0.060385 0.508823
vt  0.765169 0.489724 0
vt  0.742409 0.498479 0
vt  0.295074 0.022221 0.382906
vt  0.246561 0.060486 0.499523
vt  0.27719 0.054873 0.467388
vt  0.314135 0.055247 0.466088
vt  0.780782 0.466064 0
vt  0.789537 0.488823 0
vt  0.213274 0.022191 0.509131
vt  0.241725 0.052525 0.580358
vt  0.241547 0.051841 0.580358
vt  0.213446 0.052161 0.554816
vt  0.221093 0.054282 0.477899
vt  0.779882 0.441694 0
vt  0.207331 0.022504 0.520291
vt  0.218117 0.055329 0.487199
vt  0.216006 0.052981 0.556676
# 125 texture vertices

vn  0 0.80752 0.589841
vn  0.999377 0.030907 0.017063
vn  0 0 -1
vn  -0.999785 0.014712 0.01462
vn  0 0.596741 0.802434
vn  0 -1 0
vn  0.574938 0.743248 0.342096
vn  0 0.707107 -0.707107
vn  -0.560414 0.755812 0.338651
vn  0 0.706334 0.707878
vn  0.627439 -0.778665 0
vn  0 -0.778665 -0.627439
vn  -0.627439 -0.778665 0
vn  0 -0.778665 0.627439
vn  0.707107 0 -0.707107
vn  -0.707107 0 -0.707107
vn  -0.566914 0.330405 0.754613
vn  0.566914 0.330405 0.754613
vn  0.310522 0.927698 -0.207251
vn  0.885259 0.346782 -0.309935
vn  0.579408 0.579158 -0.573465
vn  0.33106 0.33106 -0.883628
vn  -0.310522 0.927698 -0.207251
vn  -0.33106 0.33106 -0.883628
vn  -0.579408 0.579158 -0.573465
vn  -0.882381 0.336537 -0.328856
vn  -0.029899 0.314103 0.948918
vn  -0.799491 0.424282 0.425205
vn  0.150634 0.717122 0.680474
vn  -0.008329 0.940484 0.339737
vn  0.029899 0.314103 0.948918
vn  0.008329 0.940484 0.339737
vn  -0.150633 0.717122 0.680474
vn  0.810808 0.451717 0.372213
vn  0.14252 -0.979478 -0.14252
vn  0.329376 -0.335836 -0.882454
vn  0.565949 -0.599502 -0.565949
vn  0.882454 -0.335836 -0.329376
vn  -0.14252 -0.979478 -0.14252
vn  -0.882454 -0.335836 -0.329376
vn  -0.565949 -0.599502 -0.565949
vn  -0.329376 -0.335836 -0.882454
vn  -0.142519 -0.979478 0.14252
vn  -0.308711 -0.209353 0.92783
vn  -0.568287 -0.595315 0.568024
vn  -0.881128 -0.333523 0.335227
vn  0.14252 -0.979478 0.142519
vn  0.881128 -0.333523 0.335226
vn  0.568287 -0.595315 0.568023
vn  0.308711 -0.209353 0.92783
vn  0.251832 0.782362 0.56964
vn  0.502182 0.715775 -0.485263
vn  0 0.961751 -0.273924
vn  0.935222 0.353814 0.013244
vn  0.926177 0 -0.37709
vn  0.713809 0.501511 -0.488839
vn  0.495178 0.495178 -0.713861
vn  0.37709 0 -0.926177
vn  0 0.37709 -0.926177
vn  -0.502182 0.715775 -0.485263
vn  -0.251832 0.782362 0.56964
vn  -0.37709 0 -0.926177
vn  -0.495178 0.495178 -0.713861
vn  -0.713809 0.501511 -0.488839
vn  -0.926177 0 -0.37709
vn  -0.895988 0.42344 0.133806
vn  0.040247 0.407514 0.912312
vn  0 0.304739 0.952436
vn  -0.895684 0.133603 0.424148
vn  -0.209266 0.689081 0.693812
vn  0.018998 0.912041 0.409659
vn  -0.251532 0.568518 0.783275
vn  0 0.953306 0.302004
vn  -0.040247 0.407514 0.912312
vn  0.251532 0.568518 0.783275
vn  -0.018998 0.912041 0.409659
vn  0.209266 0.689081 0.693812
vn  0.895684 0.133603 0.424147
vn  0 -0.986355 -0.16463
vn  0.390186 -0.833972 -0.390186
vn  0.16463 -0.986355 0
vn  0 -0.386847 -0.922144
vn  0.488748 -0.50209 -0.713464
vn  0.713464 -0.50209 -0.488749
vn  0.922144 -0.386847 0
vn  -0.16463 -0.986355 0
vn  -0.390186 -0.833972 -0.390186
vn  -0.922144 -0.386847 0
vn  -0.713464 -0.50209 -0.488748
vn  -0.488749 -0.50209 -0.713464
vn  0 -0.986355 0.16463
vn  -0.390186 -0.833973 0.390186
vn  0 -0.281647 0.959518
vn  -0.496355 -0.491672 0.715465
vn  -0.713435 -0.495276 0.495694
vn  0.390186 -0.833972 0.390186
vn  0.713435 -0.495276 0.495693
vn  0.496355 -0.491672 0.715465
# 98 vertex normals

g armchair-05
usemtl straw_misc
s 2
f -98/-124/-98 -48/-61/-48 -80/-93/-80
f -80/-93/-80 -46/-58/-46 -98/-124/-98
f -92/-118/-92 -47/-59/-47 -80/-93/-80
f -80/-93/-80 -48/-61/-48 -92/-118/-92
f -91/-116/-91 -46/-58/-46 -80/-93/-80
f -80/-93/-80 -47/-59/-47 -91/-116/-91
f -92/-118/-92 -45/-57/-45 -79/-92/-79
f -79/-92/-79 -43/-55/-43 -92/-118/-92
f -97/-123/-97 -44/-56/-44 -79/-92/-79
f -79/-92/-79 -45/-57/-45 -97/-123/-97
f -84/-104/-84 -43/-55/-43 -79/-92/-79
f -79/-92/-79 -44/-56/-44 -84/-104/-84
f -92/-118/-92 -43/-55/-43 -78/-91/-78
f -78/-91/-78 -47/-59/-47 -92/-118/-92
f -84/-104/-84 -42/-54/-42 -78/-91/-78
f -78/-91/-78 -43/-55/-43 -84/-104/-84
f -91/-116/-91 -47/-59/-47 -78/-91/-78
f -78/-91/-78 -42/-54/-42 -91/-116/-91
f -91/-116/-91 -42/-54/-42 -77/-90/-77
f -77/-90/-77 -40/-52/-40 -91/-116/-91
f -84/-104/-84 -41/-53/-41 -77/-90/-77
f -77/-90/-77 -42/-54/-42 -84/-104/-84
f -96/-112/-96 -40/-52/-40 -77/-90/-77
f -77/-90/-77 -41/-53/-41 -96/-112/-96
f -98/-124/-98 -46/-58/-46 -76/-89/-76
f -76/-89/-76 -38/-49/-38 -98/-124/-98
f -91/-116/-91 -39/-50/-39 -76/-89/-76
f -76/-89/-76 -46/-58/-46 -91/-116/-91
f -90/-94/-90 -38/-49/-38 -76/-89/-76
f -76/-89/-76 -39/-50/-39 -90/-94/-90
f -91/-116/-91 -40/-51/-40 -75/-88/-75
f -75/-88/-75 -36/-46/-36 -91/-116/-91
f -96/-122/-96 -37/-47/-37 -75/-88/-75
f -75/-88/-75 -40/-51/-40 -96/-122/-96
f -83/-105/-83 -36/-46/-36 -75/-88/-75
f -75/-88/-75 -37/-47/-37 -83/-105/-83
f -91/-116/-91 -36/-46/-36 -74/-87/-74
f -74/-87/-74 -39/-50/-39 -91/-116/-91
f -83/-105/-83 -35/-45/-35 -74/-87/-74
f -74/-87/-74 -36/-46/-36 -83/-105/-83
f -90/-94/-90 -39/-50/-39 -74/-87/-74
f -74/-87/-74 -35/-45/-35 -90/-94/-90
f -90/-94/-90 -35/-45/-35 -73/-86/-73
f -73/-86/-73 -33/-43/-33 -90/-94/-90
f -83/-105/-83 -34/-44/-34 -73/-86/-73
f -73/-86/-73 -35/-45/-35 -83/-105/-83
f -95/-121/-95 -33/-43/-33 -73/-86/-73
f -73/-86/-73 -34/-44/-34 -95/-121/-95
f -98/-125/-98 -38/-48/-38 -72/-85/-72
f -72/-85/-72 -31/-41/-31 -98/-125/-98
f -90/-107/-90 -32/-42/-32 -72/-85/-72
f -72/-85/-72 -38/-48/-38 -90/-107/-90
f -89/-106/-89 -31/-41/-31 -72/-85/-72
f -72/-85/-72 -32/-42/-32 -89/-106/-89
f -90/-94/-90 -33/-43/-33 -71/-84/-71
f -71/-84/-71 -29/-39/-29 -90/-94/-90
f -95/-121/-95 -30/-40/-30 -71/-84/-71
f -71/-84/-71 -33/-43/-33 -95/-121/-95
f -82/-100/-82 -29/-39/-29 -71/-84/-71
f -71/-84/-71 -30/-40/-30 -82/-100/-82
f -90/-107/-90 -29/-38/-29 -70/-83/-70
f -70/-83/-70 -32/-42/-32 -90/-107/-90
f -82/-103/-82 -28/-37/-28 -70/-83/-70
f -70/-83/-70 -29/-38/-29 -82/-103/-82
f -89/-106/-89 -32/-42/-32 -70/-83/-70
f -70/-83/-70 -28/-37/-28 -89/-106/-89
f -89/-106/-89 -28/-37/-28 -69/-82/-69
f -69/-82/-69 -26/-34/-26 -89/-106/-89
f -82/-103/-82 -27/-36/-27 -69/-82/-69
f -69/-82/-69 -28/-37/-28 -82/-103/-82
f -94/-117/-94 -26/-34/-26 -69/-82/-69
f -69/-82/-69 -27/-36/-27 -94/-117/-94
f -98/-125/-98 -31/-41/-31 -68/-81/-68
f -68/-81/-68 -48/-60/-48 -98/-125/-98
f -89/-106/-89 -25/-33/-25 -68/-81/-68
f -68/-81/-68 -31/-41/-31 -89/-106/-89
f -92/-108/-92 -48/-60/-48 -68/-81/-68
f -68/-81/-68 -25/-33/-25 -92/-108/-92
f -89/-106/-89 -26/-34/-26 -67/-80/-67
f -67/-80/-67 -23/-30/-23 -89/-106/-89
f -94/-117/-94 -24/-32/-24 -67/-80/-67
f -67/-80/-67 -26/-34/-26 -94/-117/-94
f -81/-102/-81 -23/-30/-23 -67/-80/-67
f -67/-80/-67 -24/-32/-24 -81/-102/-81
f -89/-106/-89 -23/-30/-23 -66/-79/-66
f -66/-79/-66 -25/-33/-25 -89/-106/-89
f -81/-102/-81 -22/-29/-22 -66/-79/-66
f -66/-79/-66 -23/-30/-23 -81/-102/-81
f -92/-108/-92 -25/-33/-25 -66/-79/-66
f -66/-79/-66 -22/-29/-22 -92/-108/-92
f -92/-118/-92 -22/-28/-22 -65/-78/-65
f -65/-78/-65 -45/-57/-45 -92/-118/-92
f -81/-109/-81 -21/-27/-21 -65/-78/-65
f -65/-78/-65 -22/-28/-22 -81/-109/-81
f -97/-123/-97 -45/-57/-45 -65/-78/-65
f -65/-78/-65 -21/-27/-21 -97/-123/-97
f -93/-119/-93 -20/-26/-20 -64/-77/-64
f -64/-77/-64 -18/-23/-18 -93/-119/-93
f -87/-97/-87 -19/-25/-19 -64/-77/-64
f -64/-77/-64 -20/-26/-20 -87/-97/-87
f -88/-101/-88 -18/-23/-18 -64/-77/-64
f -64/-77/-64 -19/-25/-19 -88/-101/-88
f -87/-99/-87 -17/-22/-17 -63/-76/-63
f -63/-76/-63 -16/-20/-16 -87/-99/-87
f -96/-112/-96 -41/-53/-41 -63/-76/-63
f -63/-76/-63 -17/-22/-17 -96/-112/-96
f -84/-104/-84 -16/-20/-16 -63/-76/-63
f -63/-76/-63 -41/-53/-41 -84/-104/-84
f -87/-99/-87 -16/-20/-16 -62/-75/-62
f -62/-75/-62 -19/-24/-19 -87/-99/-87
f -84/-104/-84 -15/-19/-15 -62/-75/-62
f -62/-75/-62 -16/-20/-16 -84/-104/-84
f -88/-115/-88 -19/-24/-19 -62/-75/-62
f -62/-75/-62 -15/-19/-15 -88/-115/-88
f -88/-115/-88 -15/-19/-15 -61/-74/-61
f -61/-74/-61 -14/-18/-14 -88/-115/-88
f -84/-104/-84 -44/-56/-44 -61/-74/-61
f -61/-74/-61 -15/-19/-15 -84/-104/-84
f -97/-123/-97 -14/-18/-14 -61/-74/-61
f -61/-74/-61 -44/-56/-44 -97/-123/-97
f -93/-119/-93 -13/-17/-13 -60/-73/-60
f -60/-73/-60 -20/-26/-20 -93/-119/-93
f -86/-96/-86 -12/-16/-12 -60/-73/-60
f -60/-73/-60 -13/-17/-13 -86/-96/-86
f -87/-97/-87 -20/-26/-20 -60/-73/-60
f -60/-73/-60 -12/-16/-12 -87/-97/-87
f -86/-111/-86 -11/-14/-11 -59/-72/-59
f -59/-72/-59 -10/-13/-10 -86/-111/-86
f -95/-121/-95 -34/-44/-34 -59/-72/-59
f -59/-72/-59 -11/-14/-11 -95/-121/-95
f -83/-105/-83 -10/-13/-10 -59/-72/-59
f -59/-72/-59 -34/-44/-34 -83/-105/-83
f -86/-111/-86 -10/-13/-10 -58/-71/-58
f -58/-71/-58 -12/-15/-12 -86/-111/-86
f -83/-105/-83 -9/-12/-9 -58/-71/-58
f -58/-71/-58 -10/-13/-10 -83/-105/-83
f -87/-114/-87 -12/-15/-12 -58/-71/-58
f -58/-71/-58 -9/-12/-9 -87/-114/-87
f -87/-114/-87 -9/-12/-9 -57/-70/-57
f -57/-70/-57 -17/-21/-17 -87/-114/-87
f -83/-105/-83 -37/-47/-37 -57/-70/-57
f -57/-70/-57 -9/-12/-9 -83/-105/-83
f -96/-122/-96 -17/-21/-17 -57/-70/-57
f -57/-70/-57 -37/-47/-37 -96/-122/-96
f -93/-119/-93 -8/-11/-8 -56/-69/-56
f -56/-69/-56 -13/-17/-13 -93/-119/-93
f -85/-95/-85 -7/-10/-7 -56/-69/-56
f -56/-69/-56 -8/-11/-8 -85/-95/-85
f -86/-96/-86 -13/-17/-13 -56/-69/-56
f -56/-69/-56 -7/-10/-7 -86/-96/-86
f -85/-98/-85 -6/-8/-6 -55/-68/-55
f -55/-68/-55 -5/-6/-5 -85/-98/-85
f -94/-110/-94 -27/-35/-27 -55/-68/-55
f -55/-68/-55 -6/-8/-6 -94/-110/-94
f -82/-100/-82 -5/-6/-5 -55/-68/-55
f -55/-68/-55 -27/-35/-27 -82/-100/-82
f -85/-98/-85 -5/-6/-5 -54/-67/-54
f -54/-67/-54 -7/-9/-7 -85/-98/-85
f -82/-100/-82 -4/-5/-4 -54/-67/-54
f -54/-67/-54 -5/-6/-5 -82/-100/-82
f -86/-111/-86 -7/-9/-7 -54/-67/-54
f -54/-67/-54 -4/-5/-4 -86/-111/-86
f -86/-111/-86 -4/-5/-4 -53/-66/-53
f -53/-66/-53 -11/-14/-11 -86/-111/-86
f -82/-100/-82 -30/-40/-30 -53/-66/-53
f -53/-66/-53 -4/-5/-4 -82/-100/-82
f -95/-121/-95 -11/-14/-11 -53/-66/-53
f -53/-66/-53 -30/-40/-30 -95/-121/-95
f -93/-119/-93 -18/-23/-18 -52/-65/-52
f -52/-65/-52 -8/-11/-8 -93/-119/-93
f -88/-101/-88 -3/-4/-3 -52/-65/-52
f -52/-65/-52 -18/-23/-18 -88/-101/-88
f -85/-95/-85 -8/-11/-8 -52/-65/-52
f -52/-65/-52 -3/-4/-3 -85/-95/-85
f -88/-115/-88 -14/-18/-14 -51/-64/-51
f -51/-64/-51 -2/-2/-2 -88/-115/-88
f -97/-123/-97 -21/-27/-21 -51/-64/-51
f -51/-64/-51 -14/-18/-14 -97/-123/-97
f -81/-109/-81 -2/-2/-2 -51/-64/-51
f -51/-64/-51 -21/-27/-21 -81/-109/-81
f -88/-115/-88 -2/-2/-2 -50/-63/-50
f -50/-63/-50 -3/-3/-3 -88/-115/-88
f -81/-109/-81 -1/-1/-1 -50/-63/-50
f -50/-63/-50 -2/-2/-2 -81/-109/-81
f -85/-113/-85 -3/-3/-3 -50/-63/-50
f -50/-63/-50 -1/-1/-1 -85/-113/-85
f -85/-113/-85 -1/-1/-1 -49/-62/-49
f -49/-62/-49 -6/-7/-6 -85/-113/-85
f -81/-109/-81 -24/-31/-24 -49/-62/-49
f -49/-62/-49 -1/-1/-1 -81/-109/-81
f -94/-120/-94 -6/-7/-6 -49/-62/-49
f -49/-62/-49 -24/-31/-24 -94/-120/-94
# 192 faces

g
