# Max2Obj Version 4.0 Mar 10th, 2001
#
mtllib ./ball-03.mtl
g
# object ball-03 to come ...
#
v  0 0.480007 0
v  0.242119 0.237888 0
v  0 0.237888 -0.242119
v  -0.242119 0.237888 0
v  0 0.237888 0.242119
v  0 -0.004231 0
v  0.12106 0.447569 0
v  0.209681 0.358947 0
v  0 0.447569 -0.12106
v  0 0.358947 -0.209681
v  -0.12106 0.447569 0
v  -0.209681 0.358947 0
v  0 0.447569 0.12106
v  0 0.358947 0.209681
v  0.12106 0.028207 0
v  0.209681 0.116828 0
v  0 0.028207 -0.12106
v  0 0.116828 -0.209681
v  -0.12106 0.028207 0
v  -0.209681 0.116828 0
v  0 0.028207 0.12106
v  0 0.116828 0.209681
v  0.209681 0.237888 -0.12106
v  0.12106 0.237888 -0.209681
v  -0.12106 0.237888 -0.209681
v  -0.209681 0.237888 -0.12106
v  -0.209681 0.237888 0.12106
v  -0.12106 0.237888 0.209681
v  0.12106 0.237888 0.209681
v  0.209681 0.237888 0.12106
v  0.132614 0.391017 -0.132614
v  -0.132614 0.391017 -0.132614
v  -0.132614 0.391017 0.132614
v  0.132614 0.391017 0.132614
v  0.132614 0.084758 -0.132614
v  -0.132614 0.084758 -0.132614
v  -0.132614 0.084758 0.132614
v  0.132614 0.084758 0.132614
# 38 vertices

vt  0.592163 1.980545 0.25
vt  0.50725 1.895632 0.25
vt  0.677075 1.895632 0.25
vt  0.592163 1.895632 0.75
vt  0.592163 1.810719 0.25
vt  0.549707 1.969931 0.25
vt  0.523171 1.943395 0.25
vt  0.639926 1.969931 0.25
vt  0.666462 1.943395 0.25
vt  0.592163 1.969931 0.5
vt  0.592163 1.952571 0.683013
vt  0.549707 1.82664 0.25
vt  0.523171 1.853176 0.25
vt  0.639926 1.82664 0.25
vt  0.666462 1.853176 0.25
vt  0.592163 1.82664 0.5
vt  0.592163 1.844573 0.683013
vt  0.523171 1.895632 0.5
vt  0.549707 1.895632 0.683013
vt  0.639926 1.895632 0.683013
vt  0.666462 1.895632 0.5
vt  0.544599 1.95056 0.523861
vt  0.645233 1.948702 0.523861
vt  0.546266 1.837973 0.523861
vt  0.643367 1.840841 0.523861
# 25 texture vertices

vn  0 1 0
vn  1 0 0
vn  0 0 -1
vn  -1 0 0
vn  0 0 1
vn  0 -1 0
vn  0.491702 0.870763 0
vn  0.870747 0.491732 0
vn  0 0.870763 -0.491702
vn  0 0.491732 -0.870747
vn  -0.491702 0.870763 0
vn  -0.870747 0.491732 0
vn  0 0.870763 0.491702
vn  0 0.491732 0.870747
vn  0.491702 -0.870763 0
vn  0.870747 -0.491732 0
vn  0 -0.870763 -0.491702
vn  0 -0.491732 -0.870747
vn  -0.491702 -0.870763 0
vn  -0.870747 -0.491732 0
vn  0 -0.870763 0.491702
vn  0 -0.491732 0.870747
vn  0.863001 0 -0.505203
vn  0.505203 0 -0.863001
vn  -0.505203 0 -0.863001
vn  -0.863001 0 -0.505203
vn  -0.863001 0 0.505203
vn  -0.505203 0 0.863001
vn  0.505203 0 0.863001
vn  0.863001 0 0.505203
vn  0.559341 0.611781 -0.559341
vn  -0.559341 0.611781 -0.559341
vn  -0.559341 0.611781 0.559341
vn  0.559341 0.611781 0.559341
vn  0.559341 -0.611781 -0.559341
vn  -0.559341 -0.611781 -0.559341
vn  -0.559341 -0.611781 0.559341
vn  0.559341 -0.611781 0.559341
# 38 vertex normals

g ball-03
usemtl misc_h
s 1
f -38/-25/-38 -32/-20/-32 -30/-16/-30
f -32/-20/-32 -31/-19/-31 -8/-4/-8
f -32/-20/-32 -8/-4/-8 -30/-16/-30
f -30/-16/-30 -8/-4/-8 -29/-15/-29
f -31/-19/-31 -37/-24/-37 -16/-8/-16
f -31/-19/-31 -16/-8/-16 -8/-4/-8
f -8/-4/-8 -16/-8/-16 -15/-7/-15
f -8/-4/-8 -15/-7/-15 -29/-15/-29
f -29/-15/-29 -15/-7/-15 -36/-22/-36
f -38/-25/-38 -30/-16/-30 -28/-18/-28
f -30/-16/-30 -29/-15/-29 -7/-3/-7
f -30/-16/-30 -7/-3/-7 -28/-18/-28
f -28/-18/-28 -7/-3/-7 -27/-17/-27
f -29/-15/-29 -36/-22/-36 -14/-6/-14
f -29/-15/-29 -14/-6/-14 -7/-3/-7
f -7/-3/-7 -14/-6/-14 -13/-5/-13
f -7/-3/-7 -13/-5/-13 -27/-17/-27
f -27/-17/-27 -13/-5/-13 -35/-23/-35
f -38/-25/-38 -28/-18/-28 -26/-16/-26
f -28/-18/-28 -27/-17/-27 -6/-3/-6
f -28/-18/-28 -6/-3/-6 -26/-16/-26
f -26/-16/-26 -6/-3/-6 -25/-15/-25
f -27/-17/-27 -35/-23/-35 -12/-5/-12
f -27/-17/-27 -12/-5/-12 -6/-3/-6
f -6/-3/-6 -12/-5/-12 -11/-6/-11
f -6/-3/-6 -11/-6/-11 -25/-15/-25
f -25/-15/-25 -11/-6/-11 -34/-22/-34
f -38/-25/-38 -26/-16/-26 -32/-20/-32
f -26/-16/-26 -25/-15/-25 -5/-4/-5
f -26/-16/-26 -5/-4/-5 -32/-20/-32
f -32/-20/-32 -5/-4/-5 -31/-19/-31
f -25/-15/-25 -34/-22/-34 -10/-7/-10
f -25/-15/-25 -10/-7/-10 -5/-4/-5
f -5/-4/-5 -10/-7/-10 -9/-8/-9
f -5/-4/-5 -9/-8/-9 -31/-19/-31
f -31/-19/-31 -9/-8/-9 -37/-24/-37
f -33/-21/-33 -22/-10/-22 -24/-14/-24
f -22/-10/-22 -21/-9/-21 -4/-2/-4
f -22/-10/-22 -4/-2/-4 -24/-14/-24
f -24/-14/-24 -4/-2/-4 -23/-13/-23
f -21/-9/-21 -36/-22/-36 -15/-7/-15
f -21/-9/-21 -15/-7/-15 -4/-2/-4
f -4/-2/-4 -15/-7/-15 -16/-8/-16
f -4/-2/-4 -16/-8/-16 -23/-13/-23
f -23/-13/-23 -16/-8/-16 -37/-24/-37
f -33/-21/-33 -20/-12/-20 -22/-10/-22
f -20/-12/-20 -19/-11/-19 -3/-1/-3
f -20/-12/-20 -3/-1/-3 -22/-10/-22
f -22/-10/-22 -3/-1/-3 -21/-9/-21
f -19/-11/-19 -35/-23/-35 -13/-5/-13
f -19/-11/-19 -13/-5/-13 -3/-1/-3
f -3/-1/-3 -13/-5/-13 -14/-6/-14
f -3/-1/-3 -14/-6/-14 -21/-9/-21
f -21/-9/-21 -14/-6/-14 -36/-22/-36
f -33/-21/-33 -18/-10/-18 -20/-12/-20
f -18/-10/-18 -17/-9/-17 -2/-1/-2
f -18/-10/-18 -2/-1/-2 -20/-12/-20
f -20/-12/-20 -2/-1/-2 -19/-11/-19
f -17/-9/-17 -34/-22/-34 -11/-6/-11
f -17/-9/-17 -11/-6/-11 -2/-1/-2
f -2/-1/-2 -11/-6/-11 -12/-5/-12
f -2/-1/-2 -12/-5/-12 -19/-11/-19
f -19/-11/-19 -12/-5/-12 -35/-23/-35
f -33/-21/-33 -24/-14/-24 -18/-10/-18
f -24/-14/-24 -23/-13/-23 -1/-2/-1
f -24/-14/-24 -1/-2/-1 -18/-10/-18
f -18/-10/-18 -1/-2/-1 -17/-9/-17
f -23/-13/-23 -37/-24/-37 -9/-8/-9
f -23/-13/-23 -9/-8/-9 -1/-2/-1
f -1/-2/-1 -9/-8/-9 -10/-7/-10
f -1/-2/-1 -10/-7/-10 -17/-9/-17
f -17/-9/-17 -10/-7/-10 -34/-22/-34
# 72 faces

g
