# Max2Obj Version 4.0 Mar 10th, 2001
#
mtllib ./bed-05.mtl
g
# object bed-05 to come ...
#
v  -0.245023 0.337894 -1.123637
v  0.758642 0.338992 -1.123636
v  0.777088 -0.000861 -1.156222
v  -0.271247 -0.001735 -1.156222
v  -0.239804 0.009042 1.156222
v  0.761895 0.011266 1.156223
v  0.76246 0.317671 1.123583
v  -0.214464 0.314368 1.123583
v  0.777089 -0.000861 1.1112
v  -0.271247 -0.001735 1.1112
v  -0.271247 -0.001735 -1.107437
v  0.777088 -0.000861 -1.107437
v  0.847121 0.318227 -1.019827
v  0.847122 0.318227 1.023436
v  0.848462 0.014096 1.053164
v  0.848462 0.014096 -1.049404
v  -0.211255 0.369045 1.039665
v  0.763243 0.372384 1.039665
v  0.766701 0.451597 -1.036062
v  -0.211255 0.448409 -1.036062
v  -0.337387 0.016914 -1.049405
v  -0.337386 0.016914 1.053163
v  -0.309296 0.319771 1.023434
v  -0.309296 0.319771 -1.019828
v  0.829239 0.30223 1.110906
v  0.832466 0.025126 1.143178
v  0.848462 0.014096 -1.156221
v  0.847121 0.318227 -1.123636
v  -0.308573 0.026509 1.138909
v  -0.281296 0.302277 1.106758
v  -0.309297 0.319771 -1.123637
v  -0.337386 0.016914 -1.156222
v  -0.840458 0.008906 -0.701841
v  -0.840458 0.008906 -1.103858
v  -0.419534 0.008906 -1.103858
v  -0.419534 0.008906 -0.701841
v  -0.848462 0.474241 -0.688227
v  -0.41153 0.474241 -0.688227
v  -0.41153 0.474241 -1.117472
v  -0.848462 0.474241 -1.117472
v  0.777088 -0.000861 0.001882
v  0.847121 0.318227 0.001805
v  0.848462 0.014096 0.00188
v  0.763243 0.372384 0.001802
v  -0.211255 0.369045 0.001802
v  -0.309296 0.319771 0.001803
v  -0.337386 0.016914 0.001879
v  -0.271247 -0.001735 0.001882
v  0.777088 -0.000861 -0.552778
v  0.847121 0.318227 -0.509011
v  -0.211255 0.448409 -0.51713
v  -0.337387 0.016914 -0.523763
v  -0.271247 -0.001735 -0.552778
v  0.766701 0.451597 -0.51713
v  0.848462 0.014096 -0.523762
v  -0.309296 0.319771 -0.509012
# 56 vertices

vt  0.755873 0.393685 0
vt  0.756687 0.439925 0
vt  0.678879 0.439925 0
vt  0.678049 0.393685 0
vt  0.769591 0.448301 0
vt  0.774808 0.449321 0
vt  0.773765 0.379828 0
vt  0.772603 0.379076 0
vt  0.730632 0.44613 0
vt  0.706586 0.44601 0
vt  0.706239 0.425064 0
vt  0.730244 0.425196 0
vt  0.572845 0.32846 0
vt  0.856279 0.329064 0
vt  0.601034 0.513222 0
vt  0.596179 0.513086 0
vt  0.856669 0.364232 0
vt  0.856301 0.364713 0
vt  0.572652 0.364412 0
vt  0.572745 0.361822 0
vt  0.610484 0.397366 0
vt  0.610092 0.397094 0
vt  0.856517 0.326659 0
vt  0.572804 0.326738 0
vt  0.730155 0.447527 0
vt  0.706819 0.447351 0
vt  0.706433 0.423609 0
vt  0.730455 0.423821 0
vt  0.837481 0.328232 0
vt  0.57581 0.513239 0
vt  0.573393 0.513139 0
vt  0.596156 0.328751 0
vt  0.83754 0.364533 0
vt  0.837019 0.363991 0
vt  0.596368 0.364959 0
vt  0.595408 0.361857 0
vt  0.581458 0.397003 0
vt  0.837424 0.326651 0
vt  0.59526 0.326741 0
vt  0.583508 0.397766 0
vt  0.752043 0.445672 0
vt  0.682681 0.445918 0
vt  0.6827 0.386316 0
vt  0.752057 0.386082 0
vt  0.800078 0.445925 0
vt  0.800495 0.383669 0
vt  0.79832 0.381239 0
vt  0.79733 0.44397 0
vt  0.70288 0.446257 0
vt  0.702505 0.425181 0
vt  0.733344 0.425179 0
vt  0.733707 0.446254 0
vt  0.595969 0.504111 0
vt  0.837278 0.506567 0
vt  0.70412 0.44732 0
vt  0.732805 0.447334 0
vt  0.733551 0.423777 0
vt  0.702699 0.42377 0
vt  0.850199 0.497623 0.498773
vt  0.575503 0.497623 0.498773
vt  0.718444 0.423715 0
vt  0.641925 0.447857 0
vt  0.718487 0.447439 0
vt  0.643952 0.378498 0
vt  0.718609 0.44607 0
vt  0.718242 0.42513 0
vt  0.856085 0.506345 0
vt  0.572995 0.504659 0
vt  0.258632 0.763206 0
vt  0.317509 0.763206 0
vt  0.317509 0.88347 0
vt  0.258632 0.88347 0
vt  0.816422 0.107387 0
vt  0.949433 0.107387 0
vt  0.949433 0.196078 0
vt  0.816422 0.196078 0
vt  0.1193 0.763411 0
vt  0.258391 0.763411 0
vt  0.258391 0.88221 0
vt  0.1193 0.88221 0
vt  0.258549 0.763405 0
vt  0.317518 0.763405 0
vt  0.317518 0.883368 0
vt  0.258549 0.883368 0
vt  0.258495 0.763372 0
vt  0.317538 0.763372 0
vt  0.317538 0.8834 0
vt  0.258495 0.8834 0
vt  0.258549 0.763405 0
vt  0.317518 0.763405 0
vt  0.317518 0.883368 0
vt  0.258549 0.883368 0
vt  0.258632 0.763206 0
vt  0.317509 0.763206 0
vt  0.317509 0.88347 0
vt  0.258632 0.88347 0
vt  0.816422 0.107387 0
vt  0.949433 0.107387 0
vt  0.949433 0.196078 0
vt  0.816422 0.196078 0
vt  0.1193 0.763411 0
vt  0.258391 0.763411 0
vt  0.258391 0.88221 0
vt  0.1193 0.88221 0
vt  0.258549 0.763405 0
vt  0.317518 0.763405 0
vt  0.317518 0.883368 0
vt  0.258549 0.883368 0
vt  0.258495 0.763372 0
vt  0.317538 0.763372 0
vt  0.317538 0.8834 0
vt  0.258495 0.8834 0
vt  0.258549 0.763405 0
vt  0.317518 0.763405 0
vt  0.317518 0.883368 0
vt  0.258549 0.883368 0
vt  0.718425 0.4356 0
vt  0.730438 0.435663 0
vt  0.714975 0.328762 0
vt  0.763802 0.513154 0
vt  0.733526 0.435717 0
vt  0.715147 0.505502 0
vt  0.714729 0.363027 0
vt  0.714835 0.326698 0
vt  0.797344 0.39723 0
vt  0.702693 0.435719 0
vt  0.706413 0.435537 0
vt  0.714867 0.364562 0
vt  0.730341 0.43043 0
vt  0.651896 0.328611 0
vt  0.651723 0.362425 0
vt  0.703914 0.397298 0
vt  0.702599 0.43045 0
vt  0.706326 0.4303 0
vt  0.651746 0.364487 0
vt  0.718333 0.430365 0
vt  0.679991 0.51312 0
vt  0.733435 0.430448 0
vt  0.652057 0.505081 0
vt  0.651806 0.326718 0
vt  0.571504 0.446921 0.499565
vt  0.854173 0.446921 0.499565
vt  0.712851 0.502655 0.500435
vt  0.712839 0.446921 0.499565
vt  0.596629 0.469303 0
vt  0.600901 0.46884 0
vt  0.610086 0.451171 0
vt  0.610384 0.451247 0
vt  0.575949 0.469477 0
vt  0.573184 0.46908 0
vt  0.581776 0.451164 0
vt  0.582927 0.45125 0
vt  0.764094 0.469072 0
vt  0.797297 0.451209 0
vt  0.680361 0.469187 0
vt  0.70384 0.451228 0
# 156 texture vertices

vn  -0.033719 0.276535 -2.855348
vn  0.02244 0.289606 -2.896424
vn  -0.000149 0.144867 -1.510718
vn  -0.000118 0.142624 -1.486428
vn  -0.30336 0.341019 2.816932
vn  0.218359 0.308719 2.900737
vn  -0.00056 0.165839 1.556793
vn  -0.000429 0.17599 1.647118
vn  0.146856 -0.976632 0.156919
vn  -0.217409 -0.956125 0.196362
vn  -0.136569 -0.990631 0.000001
vn  0.103511 -0.994628 0
vn  3.141562 0.01385 0
vn  1.272409 0.041828 0.258119
vn  1.522411 0.032763 0.266529
vn  3.141563 0.01385 0
vn  -0.211042 0.942749 0.258237
vn  0.25032 0.935361 0.249879
vn  0.402182 0.846114 -0.349773
vn  -0.380075 0.849841 -0.365122
vn  -1.660606 0.154021 -0.000003
vn  -2.912191 0.315795 0.465493
vn  -2.887628 0.322936 0.436553
vn  -1.467559 0.136118 0.000007
vn  1.817997 0.065861 0.383723
vn  1.552955 0.037416 0.281658
vn  1.464047 0.006454 0
vn  1.677514 0.007396 0
vn  -1.506171 0.191757 0.496429
vn  -1.716425 0.24297 0.627809
vn  -1.670354 0.154927 0.000005
vn  -1.457813 0.135211 -0.000005
vn  0 -1.570796 0
vn  0 -1.570796 0
vn  0 -1.570797 0
vn  0 -1.570795 0
vn  0 1.570796 0
vn  0 1.570796 0
vn  0 1.570796 0
vn  0 1.570796 0
vn  0.103512 -0.994628 0
vn  0.852048 1.31966 0
vn  1.57103 0.006925 0
vn  0.304376 0.951558 0.0435
vn  -0.255903 0.965731 0.043335
vn  -3.128166 0.290139 0
vn  -1.564331 0.145092 0
vn  -0.136569 -0.990631 0
vn  0.103511 -0.994628 0
vn  1.522319 0.00671 -0.000001
vn  -0.435451 0.897747 0.066575
vn  -1.515831 0.140595 0.000001
vn  -0.136569 -0.990631 0
vn  0.479797 0.874874 0.066257
vn  1.619243 0.007138 0
vn  -1.209431 0.921763 0
# 56 vertex normals

g bed-05
usemtl straw_misc
s 2
f -54/-13/-54 -53/-15/-53 -56/-98/-56
f -56/-98/-56 -55/-14/-55 -54/-13/-54
s 4
f -49/-149/-49 -52/-152/-52 -51/-95/-51
f -51/-95/-51 -50/-93/-50 -49/-149/-49
s 16
f -44/-12/-44 -7/-2/-7 -2/-20/-2
f -2/-20/-2 -41/-141/-41 -44/-12/-44
s 32
f -13/-35/-13 -12/-34/-12 -40/-140/-40
f -40/-140/-40 -39/-90/-39 -13/-35/-13
s 64
f -34/-10/-34 -11/-3/-11 -10/-32/-10
f -10/-32/-10 -35/-135/-35 -34/-10/-34
s 8
f -46/-146/-46 -53/-130/-53 -54/-96/-54
f -54/-96/-54 -45/-91/-45 -46/-146/-46
s 16
f -31/-127/-31 -42/-142/-42 -43/-11/-43
f -43/-11/-43 -32/-8/-32 -31/-127/-31
f -29/-7/-29 -44/-12/-44 -41/-141/-41
f -41/-141/-41 -30/-126/-30 -29/-7/-29
s 32
f -40/-140/-40 -49/-124/-49 -50/-103/-50
f -50/-103/-50 -39/-90/-39 -40/-140/-40
s 64
f -34/-10/-34 -35/-135/-35 -28/-120/-28
f -28/-120/-28 -27/-6/-27 -34/-10/-34
f -36/-136/-36 -33/-9/-33 -26/-5/-26
f -26/-5/-26 -25/-117/-25 -36/-136/-36
s 2
f -30/-115/-30 -54/-154/-54 -55/-155/-55
f -55/-155/-55 -29/-116/-29 -30/-115/-30
f -26/-113/-26 -56/-156/-56 -53/-153/-53
f -53/-153/-53 -25/-114/-25 -26/-113/-26
s 4
f -50/-150/-50 -51/-151/-51 -31/-112/-31
f -31/-112/-31 -32/-111/-32 -50/-150/-50
f -52/-152/-52 -49/-149/-49 -27/-110/-27
f -27/-110/-27 -28/-109/-28 -52/-152/-52
s 8
f -35/-108/-35 -10/-31/-10 -9/-30/-9
f -9/-30/-9 -47/-147/-47 -35/-108/-35
f -41/-106/-41 -2/-19/-2 -8/-28/-8
f -8/-28/-8 -45/-145/-45 -41/-106/-41
s 32
f -43/-143/-43 -15/-38/-15 -13/-29/-13
f -13/-29/-13 -39/-139/-39 -43/-143/-43
f -33/-133/-33 -1/-17/-1 -6/-26/-6
f -6/-26/-6 -37/-137/-37 -33/-133/-33
s 8
f -47/-147/-47 -52/-131/-52 -28/-102/-28
f -28/-102/-28 -35/-108/-35 -47/-147/-47
f -31/-101/-31 -51/-132/-51 -48/-148/-48
f -48/-148/-48 -42/-105/-42 -31/-101/-31
f -45/-145/-45 -54/-129/-54 -30/-100/-30
f -30/-100/-30 -41/-106/-41 -45/-145/-45
f -53/-130/-53 -46/-146/-46 -36/-107/-36
f -36/-107/-36 -25/-99/-25 -53/-130/-53
s 32
f -39/-139/-39 -50/-123/-50 -32/-128/-32
f -32/-128/-32 -43/-143/-43 -39/-139/-39
f -27/-119/-27 -49/-124/-49 -40/-140/-40
f -40/-140/-40 -34/-134/-34 -27/-119/-27
f -33/-133/-33 -37/-137/-37 -56/-121/-56
f -56/-121/-56 -26/-118/-26 -33/-133/-33
f -29/-125/-29 -55/-122/-55 -38/-138/-38
f -38/-138/-38 -44/-144/-44 -29/-125/-29
s 8
f -9/-30/-9 -16/-40/-16 -48/-92/-48
f -48/-92/-48 -47/-147/-47 -9/-30/-9
f -48/-92/-48 -51/-94/-51 -52/-131/-52
f -52/-131/-52 -47/-147/-47 -48/-92/-48
s 32
f -37/-137/-37 -38/-89/-38 -55/-104/-55
f -55/-104/-55 -56/-121/-56 -37/-137/-37
s 2
f -22/-62/-22 -21/-61/-21 -24/-64/-24
f -24/-64/-24 -23/-63/-23 -22/-62/-22
s 4
f -18/-58/-18 -17/-57/-17 -20/-60/-20
f -20/-60/-20 -19/-59/-19 -18/-58/-18
s 8
f -19/-54/-19 -20/-53/-20 -24/-56/-24
f -24/-56/-24 -21/-55/-21 -19/-54/-19
s 16
f -18/-50/-18 -19/-49/-19 -21/-52/-21
f -21/-52/-21 -22/-51/-22 -18/-50/-18
s 32
f -17/-46/-17 -18/-45/-18 -22/-48/-22
f -22/-48/-22 -23/-47/-23 -17/-46/-17
s 64
f -20/-42/-20 -17/-41/-17 -23/-44/-23
f -23/-44/-23 -24/-43/-24 -20/-42/-20
s 16
f -43/-11/-43 -42/-142/-42 -14/-37/-14
f -14/-37/-14 -15/-4/-15 -43/-11/-43
s 32
f -3/-18/-3 -6/-26/-6 -12/-34/-12
f -12/-34/-12 -13/-35/-13 -3/-18/-3
s 64
f -1/-1/-1 -5/-25/-5 -10/-32/-10
f -10/-32/-10 -11/-3/-11 -1/-1/-1
s 8
f -5/-24/-5 -4/-23/-4 -9/-30/-9
f -9/-30/-9 -10/-31/-10 -5/-24/-5
f -42/-105/-42 -48/-148/-48 -16/-39/-16
f -16/-39/-16 -14/-36/-14 -42/-105/-42
s 32
f -7/-27/-7 -3/-22/-3 -13/-29/-13
f -13/-29/-13 -15/-38/-15 -7/-27/-7
f -34/-134/-34 -40/-140/-40 -12/-34/-12
f -12/-34/-12 -11/-33/-11 -34/-134/-34
s 8
f -4/-23/-4 -8/-21/-8 -16/-40/-16
f -16/-40/-16 -9/-30/-9 -4/-23/-4
s 16
f -7/-2/-7 -15/-4/-15 -14/-37/-14
f -14/-37/-14 -2/-20/-2 -7/-2/-7
s 8
f -2/-19/-2 -14/-36/-14 -16/-39/-16
f -16/-39/-16 -8/-28/-8 -2/-19/-2
s 32
f -1/-17/-1 -11/-33/-11 -12/-34/-12
f -12/-34/-12 -6/-26/-6 -1/-17/-1
f -38/-89/-38 -37/-137/-37 -6/-26/-6
f -6/-26/-6 -3/-18/-3 -38/-89/-38
s 64
f -33/-9/-33 -36/-136/-36 -5/-25/-5
f -5/-25/-5 -1/-1/-1 -33/-9/-33
s 8
f -36/-107/-36 -46/-146/-46 -4/-23/-4
f -4/-23/-4 -5/-24/-5 -36/-107/-36
s 32
f -44/-144/-44 -38/-138/-38 -3/-22/-3
f -3/-22/-3 -7/-27/-7 -44/-144/-44
s 8
f -46/-146/-46 -45/-91/-45 -8/-21/-8
f -8/-21/-8 -4/-23/-4 -46/-146/-46
# 104 faces

g
