# Max2Obj Version 4.0 Mar 10th, 2001
#
mtllib ./sofa-09.mtl
g
# object sofa-09 to come ...
#
v  -0.485014 0.010107 0.457179
v  -0.507263 0.279411 0.391122
v  -0.520745 0.33514 0.337049
v  -0.006411 0.010107 0.375092
v  -0.006571 0.33514 0.243243
v  -0.006626 0.279411 0.298815
v  -0.626205 0.044339 0.002451
v  -0.638648 0.261709 -0.047454
v  -0.716805 0.538478 -0.360923
v  -0.685562 0.014399 -0.235615
v  -0.68383 0.579613 -0.228671
v  -0.668212 0.534409 -0.166029
v  -0.006274 0.583404 -0.470524
v  -0.686459 0.270662 -0.239212
v  -0.006638 0.336647 -0.34009
v  0.418055 0.010107 0.441729
v  0.436428 0.279411 0.380839
v  0.454094 0.33514 0.328041
v  0.560779 0.044339 -0.008374
v  0.577084 0.261709 -0.057102
v  -0.006601 0.044339 -0.101799
v  -0.006136 0.284172 -0.153491
v  0.679496 0.538478 -0.363181
v  0.638557 0.014399 -0.240827
v  0.636288 0.579613 -0.234046
v  0.615823 0.534409 -0.172882
v  -0.006647 0.014399 -0.339333
v  -0.006431 0.579334 -0.27334
v  -0.006368 0.624539 -0.337718
v  0.641023 0.270662 -0.24286
v  -0.543796 0.048562 0.418908
v  -0.564362 0.260893 0.3653
v  -0.573076 0.297233 0.331927
v  -0.67657 0.079739 0.008493
v  -0.694042 0.222481 -0.060989
v  -0.755706 0.516666 -0.307535
v  -0.727956 0.053879 -0.196231
v  -0.736042 0.541196 -0.228669
v  -0.725698 0.511258 -0.187182
v  -0.728741 0.278693 -0.199387
v  0.47548 0.048562 0.40988
v  0.497905 0.260893 0.357022
v  0.507778 0.297233 0.323974
v  0.642381 0.222481 -0.064481
v  0.622496 0.079739 0.004349
v  0.690208 0.541196 -0.230593
v  0.712613 0.516666 -0.308725
v  0.68189 0.278693 -0.201583
v  0.678422 0.511258 -0.189493
v  0.680995 0.053879 -0.198457
# 50 vertices

vt  0.952533 1.428407 0.522952
vt  0.777445 1.4306 0.550376
vt  0.793724 1.327275 0.397161
vt  0.992384 0.312902 0.44532
vt  0.971417 0.413243 0.488588
vt  0.794038 1.404133 0.436894
vt  0.793659 1.429337 0.215853
vt  0.954677 0.434184 0.493366
vt  0.93925 1.660832 0.450879
vt  0.777793 1.530583 0.237294
vt  0.933726 1.326428 0.399016
vt  0.792001 1.661656 0.422563
vt  0.849119 0.325711 0.44954
vt  0.95229 1.530583 0.237294
vt  0.933934 1.403076 0.43921
vt  0.83367 0.40691 0.479513
vt  0.95091 1.563996 0.515571
vt  0.948008 1.582835 0.511045
vt  0.952447 1.470552 0.570857
vt  0.777441 1.471932 0.606489
vt  0.779423 1.583135 0.487763
vt  0.777997 1.564851 0.484947
vt  0.952422 1.529516 0.4935
vt  0.73663 0.511042 0.500079
vt  0.775421 0.315255 0.428166
vt  0.952248 1.48932 0.607105
vt  0.777445 1.490975 0.647266
vt  0.777571 0.525987 0.515728
vt  0.777374 1.531806 0.533317
vt  0.796963 0.508945 0.513174
vt  0.774308 0.410819 0.467391
vt  0.952399 1.505039 0.534582
vt  0.777406 1.506811 0.573487
vt  0.935664 1.42852 0.217237
vt  0.76912 0.28544 1
vt  0.782852 0.35055 1
vt  0.796326 0.364024 1
vt  0.876653 0.293716 1
vt  0.889088 0.346271 1
vt  0.967197 0.423774 1
vt  0.935973 0.286477 1
vt  0.934243 0.433719 1
vt  0.918634 0.42279 1
vt  0.931628 0.358618 1
vt  0.976117 0.32504 0.503364
vt  0.958875 0.404034 0.540316
vt  0.948509 0.417664 0.544001
vt  0.846333 0.336454 0.513164
vt  0.82481 0.389878 0.530426
vt  0.74847 0.500296 0.558603
vt  0.782926 0.327404 0.495147
vt  0.772885 0.509208 0.567934
vt  0.785728 0.497921 0.566242
vt  0.781949 0.41124 0.529557
vt  0.976117 0.32504 0.503364
vt  0.958875 0.404034 0.540316
vt  0.948509 0.417664 0.544001
vt  0.82481 0.389878 0.530426
vt  0.846333 0.336454 0.513164
vt  0.772885 0.509208 0.567934
vt  0.74847 0.500296 0.558603
vt  0.781949 0.41124 0.529557
vt  0.785728 0.497921 0.566242
vt  0.782926 0.327404 0.495147
vt  0.849119 0.325711 0.44954
vt  0.992384 0.312902 0.44532
vt  0.971417 0.413243 0.488588
vt  0.954677 0.434184 0.493366
vt  0.83367 0.40691 0.479513
vt  0.777571 0.525987 0.515728
vt  0.73663 0.511042 0.500079
vt  0.774308 0.410819 0.467391
vt  0.796963 0.508945 0.513174
vt  0.775421 0.315255 0.428166
vt  0.958875 0.404034 0.540316
vt  0.976117 0.32504 0.503364
vt  0.948509 0.417664 0.544001
vt  0.82481 0.389878 0.530426
vt  0.846333 0.336454 0.513164
vt  0.74847 0.500296 0.558603
vt  0.772885 0.509208 0.567934
vt  0.781949 0.41124 0.529557
vt  0.785728 0.497921 0.566242
vt  0.782926 0.327404 0.495147
vt  0.992384 0.312902 0.44532
vt  0.849119 0.325711 0.44954
vt  0.971417 0.413243 0.488588
vt  0.954677 0.434184 0.493366
vt  0.83367 0.40691 0.479513
vt  0.73663 0.511042 0.500079
vt  0.777571 0.525987 0.515728
vt  0.774308 0.410819 0.467391
vt  0.796963 0.508945 0.513174
vt  0.775421 0.315255 0.428166
# 94 texture vertices

vn  0.242974 -1.298429 1.415291
vn  0.464261 1.531632 2.586037
vn  -0.519162 3.487509 1.729878
vn  0.062246 -1.608746 0.362925
vn  -0.000374 0.961024 0.276465
vn  0.285427 0.516307 1.548038
vn  0.006778 -2.73122 0.054756
vn  -1.104707 3.770643 1.225098
vn  -0.197378 1.222197 -0.739263
vn  -0.203892 -1.485083 -1.377155
vn  -0.124015 2.759079 0.371481
vn  -0.365957 2.405231 3.606746
vn  -0.305452 0.700264 -1.693169
vn  -1.497218 -1.273085 -4.082885
vn  0.000164 -0.256088 -0.966653
vn  -0.259868 -0.361844 1.477108
vn  -0.467178 1.409198 2.52945
vn  0.501116 3.460166 1.766497
vn  -0.017556 -3.139706 0.106617
vn  0.920559 3.778213 1.214283
vn  0.019458 -3.123205 0.116627
vn  0.001421 0.838574 0.544787
vn  0.297018 0.658442 -1.778735
vn  0.04158 -1.390992 -0.282181
vn  0.129092 2.866537 0.389349
vn  0.253129 2.441757 3.696152
vn  -0.230754 -0.355948 -1.510472
vn  0.001935 0.644464 0.764632
vn  -0.126457 2.766418 0.308228
vn  1.529134 -1.281107 -4.05135
vn  -0.767115 -0.311953 0.560553
vn  -0.77364 0.20615 0.599152
vn  -0.789118 0.492568 0.366973
vn  -3.192437 0.072657 0.95203
vn  -1.902477 0.022261 0.561449
vn  -0.936102 0.20373 -0.286718
vn  -0.908409 -0.383931 -0.1655
vn  -0.808422 0.524114 0.267876
vn  -0.75897 0.313623 0.570619
vn  -0.974002 -0.101021 -0.202767
vn  0.737216 -0.307829 0.601459
vn  0.743534 0.211142 0.63449
vn  0.772007 0.496921 0.396326
vn  1.881725 0.02226 0.6275
vn  3.157269 0.072656 1.062859
vn  0.788479 0.534909 0.303601
vn  0.95194 0.206092 -0.226574
vn  0.980642 -0.102501 -0.166837
vn  0.716794 0.327747 0.615458
vn  0.910436 -0.391747 -0.132821
# 50 vertex normals

g sofa-09
usemtl 02_-_Default
s 1
f -50/-94/-50 -44/-76/-44 -30/-75/-30
f -30/-75/-30 -47/-93/-47 -50/-94/-50
f -49/-89/-49 -50/-92/-50 -47/-84/-47
f -47/-84/-47 -45/-80/-45 -49/-89/-49
f -48/-88/-48 -49/-89/-49 -45/-80/-45
f -45/-80/-45 -46/-61/-46 -48/-88/-48
f -20/-50/-20 -19/-49/-19 -18/-48/-18
f -20/-50/-20 -18/-48/-18 -16/-46/-16
f -20/-50/-20 -16/-46/-16 -17/-47/-17
f -48/-88/-48 -46/-61/-46 -29/-81/-29
f -29/-81/-29 -43/-85/-43 -48/-88/-48
f -13/-43/-13 -15/-45/-15 -11/-41/-11
f -13/-43/-13 -11/-41/-11 -16/-46/-16
f -13/-43/-13 -16/-46/-16 -12/-42/-12
f -41/-69/-41 -37/-63/-37 -36/-62/-36
f -36/-62/-36 -24/-68/-24 -41/-69/-41
f -39/-77/-39 -43/-86/-43 -29/-83/-29
f -29/-83/-29 -23/-74/-23 -39/-77/-39
f -42/-81/-42 -40/-78/-40 -22/-73/-22
f -22/-73/-22 -38/-85/-38 -42/-81/-42
f -44/-76/-44 -41/-69/-41 -24/-68/-24
f -24/-68/-24 -30/-75/-30 -44/-76/-44
f -40/-78/-40 -39/-77/-39 -23/-74/-23
f -23/-74/-23 -22/-73/-22 -40/-78/-40
f -14/-44/-14 -17/-47/-17 -16/-46/-16
f -16/-46/-16 -11/-41/-11 -14/-44/-14
f -42/-72/-42 -38/-66/-38 -36/-62/-36
f -36/-62/-36 -37/-63/-37 -42/-72/-42
f -33/-61/-33 -31/-81/-31 -29/-85/-29
f -29/-85/-29 -46/-88/-46 -33/-61/-33
f -35/-84/-35 -34/-80/-34 -45/-89/-45
f -45/-89/-45 -47/-92/-47 -35/-84/-35
f -34/-80/-34 -33/-61/-33 -46/-88/-46
f -46/-88/-46 -45/-89/-45 -34/-80/-34
f -35/-94/-35 -47/-93/-47 -30/-75/-30
f -30/-75/-30 -32/-76/-32 -35/-94/-35
f -28/-72/-28 -21/-63/-21 -36/-62/-36
f -36/-62/-36 -38/-66/-38 -28/-72/-28
f -26/-78/-26 -28/-81/-28 -38/-85/-38
f -38/-85/-38 -22/-73/-22 -26/-78/-26
f -27/-69/-27 -32/-76/-32 -30/-75/-30
f -30/-75/-30 -24/-68/-24 -27/-69/-27
f -25/-77/-25 -26/-78/-26 -22/-73/-22
f -22/-73/-22 -23/-74/-23 -25/-77/-25
f -27/-69/-27 -24/-68/-24 -36/-62/-36
f -36/-62/-36 -21/-63/-21 -27/-69/-27
f -25/-77/-25 -23/-74/-23 -29/-83/-29
f -29/-83/-29 -31/-86/-31 -25/-77/-25
f -44/-82/-44 -50/-91/-50 -20/-50/-20
f -20/-50/-20 -17/-47/-17 -44/-82/-44
f -50/-91/-50 -49/-90/-49 -19/-49/-19
f -19/-49/-19 -20/-50/-20 -50/-91/-50
f -49/-90/-49 -48/-87/-48 -18/-48/-18
f -18/-48/-18 -19/-49/-19 -49/-90/-49
f -48/-87/-48 -43/-79/-43 -16/-46/-16
f -16/-46/-16 -18/-48/-18 -48/-87/-48
f -40/-67/-40 -42/-71/-42 -15/-45/-15
f -15/-45/-15 -13/-43/-13 -40/-67/-40
f -42/-71/-42 -37/-64/-37 -11/-41/-11
f -11/-41/-11 -15/-45/-15 -42/-71/-42
f -43/-79/-43 -39/-65/-39 -12/-42/-12
f -12/-42/-12 -16/-46/-16 -43/-79/-43
f -39/-65/-39 -40/-67/-40 -13/-43/-13
f -13/-43/-13 -12/-42/-12 -39/-65/-39
f -37/-64/-37 -41/-70/-41 -14/-44/-14
f -14/-44/-14 -11/-41/-11 -37/-64/-37
f -41/-70/-41 -44/-82/-44 -17/-47/-17
f -17/-47/-17 -14/-44/-14 -41/-70/-41
f -9/-39/-9 -10/-40/-10 -8/-38/-8
f -8/-38/-8 -10/-40/-10 -7/-37/-7
f -7/-37/-7 -10/-40/-10 -6/-36/-6
f -4/-34/-4 -5/-35/-5 -3/-33/-3
f -3/-33/-3 -5/-35/-5 -7/-37/-7
f -7/-37/-7 -5/-35/-5 -2/-32/-2
f -6/-36/-6 -1/-31/-1 -7/-37/-7
f -3/-33/-3 -7/-37/-7 -1/-31/-1
f -35/-29/-35 -32/-30/-32 -10/-40/-10
f -6/-36/-6 -10/-40/-10 -32/-30/-32
f -34/-28/-34 -35/-29/-35 -9/-39/-9
f -10/-40/-10 -9/-39/-9 -35/-29/-35
f -33/-27/-33 -34/-28/-34 -8/-38/-8
f -9/-39/-9 -8/-38/-8 -34/-28/-34
f -31/-26/-31 -33/-27/-33 -7/-37/-7
f -8/-38/-8 -7/-37/-7 -33/-27/-33
f -28/-24/-28 -26/-25/-26 -4/-34/-4
f -5/-35/-5 -4/-34/-4 -26/-25/-26
f -21/-23/-21 -28/-24/-28 -3/-33/-3
f -4/-34/-4 -3/-33/-3 -28/-24/-28
f -25/-22/-25 -31/-26/-31 -2/-32/-2
f -7/-37/-7 -2/-32/-2 -31/-26/-31
f -26/-25/-26 -25/-22/-25 -5/-35/-5
f -2/-32/-2 -5/-35/-5 -25/-22/-25
f -27/-21/-27 -21/-23/-21 -1/-31/-1
f -3/-33/-3 -1/-31/-1 -21/-23/-21
f -32/-30/-32 -27/-21/-27 -6/-36/-6
f -1/-31/-1 -6/-36/-6 -27/-21/-27
# 96 faces

g
