# Max2Obj Version 4.0 Mar 10th, 2001
#
mtllib ./sofa-03.mtl
g
# object sofa-03 to come ...
#
v  -0.765696 0.009747 0.379382
v  0.753038 0.009747 0.379382
v  -0.765696 0.279051 0.322586
v  0.753038 0.279051 0.322586
v  -0.765696 0.33478 0.266857
v  0.753038 0.33478 0.266857
v  0.246793 0.009747 0.425001
v  -0.259451 0.009747 0.425001
v  -0.259451 0.33478 0.312476
v  0.246794 0.33478 0.312476
v  -0.259451 0.279051 0.368205
v  0.246793 0.279051 0.368205
v  -0.765696 0.043979 -0.065385
v  0.753039 0.043979 -0.065385
v  0.753039 0.261349 -0.116817
v  -0.765696 0.261349 -0.116818
v  0.246794 0.043979 -0.024401
v  -0.259451 0.043979 -0.024401
v  0.246794 0.283812 -0.079794
v  -0.259451 0.283812 -0.079794
v  0.753039 0.706903 -0.439883
v  -0.765696 0.706903 -0.439884
v  0.753039 0.014039 -0.310739
v  -0.765696 0.014039 -0.31074
v  0.753039 0.748039 -0.303582
v  -0.765696 0.748039 -0.303582
v  0.753039 0.702834 -0.239022
v  -0.765696 0.702834 -0.239023
v  0.246794 0.014039 -0.260221
v  -0.259451 0.014039 -0.260221
v  -0.259451 0.751829 -0.397287
v  0.246794 0.751829 -0.397287
v  0.246794 0.747759 -0.196426
v  -0.259451 0.747759 -0.196426
v  0.246794 0.792964 -0.260985
v  -0.259451 0.792964 -0.260986
v  0.753039 0.31242 -0.292766
v  -0.765696 0.270302 -0.314446
v  -0.259451 0.315228 -0.27185
v  0.246794 0.357346 -0.25017
v  -0.982658 0.009294 0.389446
v  -0.754001 0.009294 0.389446
v  -0.982658 0.009294 -0.422624
v  -0.754001 0.009294 -0.422624
v  -1.005985 0.429981 0.376417
v  -0.730674 0.429981 0.376417
v  -1.005985 0.429981 -0.422624
v  -0.730674 0.429981 -0.422624
v  -0.868329 0.009294 -0.422624
v  -0.86833 0.009294 0.439883
v  -0.914215 0.495096 0.376871
v  -0.822444 0.495096 0.376871
v  -0.822444 0.495096 -0.422624
v  -0.914215 0.495096 -0.422624
v  -0.754001 0.220502 0.389446
v  -0.694884 0.331076 0.389446
v  -1.026848 0.331076 0.389446
v  -0.982658 0.220502 0.389446
v  -0.754001 0.220502 -0.422624
v  -0.694884 0.331076 -0.422624
v  -0.982658 0.220502 -0.422624
v  -1.026848 0.331076 -0.422624
v  -0.868232 0.359444 0.439883
v  -0.868231 0.359444 -0.422624
v  0.899287 0.495096 0.376871
v  0.899287 0.495096 -0.422624
v  0.807517 0.495096 -0.422624
v  0.807517 0.495096 0.376871
v  1.026848 0.331076 -0.422624
v  1.026848 0.331076 0.389446
v  0.96773 0.220502 0.389446
v  0.96773 0.220502 -0.422624
v  0.694884 0.331076 0.389446
v  0.694884 0.331076 -0.422624
v  0.739074 0.220502 -0.422624
v  0.739073 0.220502 0.389446
v  0.96773 0.009294 -0.422624
v  0.96773 0.009294 0.389446
v  0.853402 0.009294 0.439883
v  0.853402 0.009294 -0.422624
v  0.739073 0.009294 0.389446
v  0.739074 0.009294 -0.422624
v  0.991057 0.429981 0.376417
v  0.991058 0.429981 -0.422624
v  0.715746 0.429981 -0.422624
v  0.715746 0.429981 0.376417
v  0.8535 0.359444 0.439883
v  0.8535 0.359444 -0.422624
# 88 vertices

vt  0.970334 0.184503 0
vt  0.779104 0.184503 0
vt  0.970177 0.097677 0
vt  0.787336 0.047023 0
vt  0.787336 0.047023 1
vt  0.796037 0.096443 0
vt  0.796037 0.096443 1
vt  0.7792 0.097628 0
vt  0.781338 0.045833 0
vt  0.969242 0.045858 0
vt  0.846807 0.111914 0
vt  0.917077 0.111914 0
vt  0.804575 0.10667 0
vt  0.804575 0.10667 1
vt  0.917077 0.184566 0
vt  0.846806 0.184566 0
vt  0.919169 0.04598 0
vt  0.845979 0.046013 0
vt  0.970335 0.112957 0
vt  0.779105 0.112957 0
vt  0.846782 0.097834 0
vt  0.917077 0.09778 0
vt  0.970334 0.183946 0
vt  0.855475 0.053305 0
vt  0.779104 0.183946 0
vt  0.855475 0.053305 1
vt  0.779104 0.183224 0
vt  0.863354 0.093194 1
vt  0.970335 0.183224 0
vt  0.863355 0.093194 0
vt  0.917077 0.184009 0
vt  0.846806 0.184009 0
vt  0.917077 0.183233 0
vt  0.846807 0.183233 0
vt  0.970334 0.184503 0
vt  0.779104 0.184503 0
vt  0.970334 0.183389 0
vt  0.779104 0.183389 0
vt  0.969744 0.123442 0
vt  0.912848 0.152021 1
vt  0.970335 0.182983 0
vt  0.779104 0.182983 0
vt  0.912848 0.152021 0
vt  0.893063 0.04781 1
vt  0.893063 0.04781 0
vt  0.778766 0.123498 0
vt  0.780904 0.182836 0
vt  0.891967 0.159569 1
vt  0.968809 0.182807 0
vt  0.891967 0.159569 0
vt  0.846807 0.111914 0
vt  0.917077 0.111914 0
vt  0.882076 0.151274 1
vt  0.882076 0.151274 0
vt  0.89031 0.102567 1
vt  0.893631 0.094837 0
vt  0.846806 0.183389 0
vt  0.917077 0.183389 0
vt  0.917077 0.184566 0
vt  0.846806 0.184566 0
vt  0.918735 0.182667 0
vt  0.845546 0.18263 0
vt  0.970335 0.112957 0
vt  0.779105 0.112957 0
vt  0.917077 0.182983 0
vt  0.846806 0.182983 0
vt  0.846348 0.123262 0
vt  0.916644 0.123324 0
vt  0.970334 0.183946 0
vt  0.779104 0.183946 0
vt  0.779104 0.183224 0
vt  0.970335 0.183224 0
vt  0.917077 0.184009 0
vt  0.846806 0.184009 0
vt  0.917077 0.183233 0
vt  0.846807 0.183233 0
vt  0.89378 0.03441 0
vt  0.832886 0.024408 0
vt  0.892284 0.207437 0
vt  0.824356 0.20685 0
vt  0.932792 0.156759 0
vt  0.91947 0.156759 0
vt  0.932792 0.056525 0
vt  0.91947 0.056525 0
vt  0.908588 0.023707 0
vt  0.870608 0.02378 0
vt  0.915467 0.170965 0
vt  0.827333 0.171984 0
vt  0.872781 0.158393 0
vt  0.872781 0.056525 0
vt  0.834116 0.098592 0
vt  0.909476 0.056525 0
vt  0.947034 0.056525 0
vt  0.947034 0.156817 0
vt  0.888034 0.158393 0
vt  0.888034 0.056525 0
vt  0.922326 0.056525 0
vt  0.871336 0.146072 0
vt  0.85832 0.207143 0
vt  0.856864 0.194035 0
vt  0.934044 0.056525 0
vt  0.886164 0.193694 0
vt  0.825852 0.033822 0
vt  0.947367 0.056525 0
vt  0.934044 0.156816 0
vt  0.859863 0.028746 0
vt  0.947367 0.156817 0
vt  0.81562 0.137499 0
vt  0.894222 0.158393 0
vt  0.908223 0.158393 0
vt  0.922089 0.136247 0
vt  0.922326 0.158393 0
vt  0.909476 0.158393 0
vt  0.894222 0.056525 0
vt  0.908223 0.056525 0
vt  0.908219 0.097424 0
vt  0.934044 0.156816 0
vt  0.934044 0.056525 0
vt  0.947034 0.056525 0
vt  0.947034 0.156817 0
vt  0.908223 0.056525 0
vt  0.908223 0.158393 0
vt  0.894222 0.158393 0
vt  0.894222 0.056525 0
vt  0.922326 0.158393 0
vt  0.922326 0.056525 0
vt  0.909476 0.056525 0
vt  0.909476 0.158393 0
vt  0.824356 0.20685 0
vt  0.825852 0.033822 0
vt  0.859863 0.028746 0
vt  0.85832 0.207143 0
vt  0.89378 0.03441 0
vt  0.892284 0.207437 0
vt  0.91947 0.156759 0
vt  0.91947 0.056525 0
vt  0.932792 0.056525 0
vt  0.932792 0.156759 0
vt  0.947367 0.156817 0
vt  0.947367 0.056525 0
vt  0.837629 0.095254 0
vt  0.820906 0.130433 0
vt  0.871282 0.138185 0
vt  0.917172 0.129302 0
vt  0.90463 0.094199 0
vt  0.858197 0.181552 0
vt  0.884689 0.181243 0
vt  0.872781 0.158393 0
vt  0.872781 0.056525 0
vt  0.888034 0.056525 0
vt  0.888034 0.158393 0
vt  0.831496 0.161613 0
vt  0.870624 0.027612 0
vt  0.836517 0.02818 0
vt  0.904964 0.027546 0
vt  0.911184 0.160692 0
# 156 texture vertices

vn  -0.128795 -1.328809 1.422285
vn  1.381765 0.223835 1.061331
vn  -0.240265 1.472378 2.66628
vn  2.700388 0.319092 1.512994
vn  -0.547965 1.06366 1.063659
vn  2.195899 0.948385 -0.18151
vn  0.136338 -0.082079 2.99473
vn  0.010137 -1.152722 1.424488
vn  -0.015452 0.942692 0.333307
vn  0.015451 0.942692 0.333307
vn  -0.000001 1.434873 2.647707
vn  -0.000001 1.325666 2.538501
vn  -1.870693 -1.485831 -0.11436
vn  1.870694 -1.485831 -0.114359
vn  1.572015 1.463605 -0.280118
vn  -1.572015 1.463604 -0.280118
vn  -0.010825 -4.771039 -0.047478
vn  0.010825 -3.648258 -0.190029
vn  0.033179 0.835952 0.547799
vn  -0.033179 0.835952 0.547799
vn  -0.088646 0.835992 -1.935248
vn  -1.656886 1.148427 -0.346594
vn  1.399538 -1.045987 0.127642
vn  0.123595 -1.496633 -1.387194
vn  0.287957 2.864821 0.400795
vn  -2.339105 1.601961 -0.483471
vn  0.781379 1.29196 0.904641
vn  -2.521434 0.225967 0.81634
vn  0.000001 -1.07681 -1.427572
vn  0.044864 -1.578465 -1.3725
vn  -0.101482 2.863349 -1.587333
vn  -0.165687 0.976744 -1.867113
vn  0.058792 0.568401 0.820648
vn  -0.058793 0.568401 0.820648
vn  0 2.790524 0.447127
vn  0 2.664013 0.358543
vn  1.182771 -0.52706 -1.413265
vn  -1.754747 -0.023891 -1.651589
vn  0.077803 -0.156217 -0.984654
vn  -0.039528 -0.165655 -0.985391
vn  -1.570796 -1.986272 0
vn  0.254448 -1.986272 0
vn  -0.254448 -1.570797 0
vn  1.570796 -1.570796 0.000001
vn  -1.034444 1.310336 0
vn  2.50427 1.860797 0.000001
vn  -2.445958 1.605279 -0.000001
vn  1.030102 1.324902 0
vn  0 -3.141592 -1.074651
vn  0.418375 -2.310642 0.948361
vn  -0.90665 3.384669 1.154104
vn  0.906649 3.385173 1.155189
vn  0.908984 2.851869 -1.245268
vn  -0.908984 2.851869 -1.243974
vn  1.691032 -0.90409 1.142921
vn  1.706622 -0.912425 1.20119
vn  -1.847876 -0.738485 1.31162
vn  -1.766574 -0.705993 1.037659
vn  1.385246 -0.740605 -1.179068
vn  1.385246 -0.740605 -1.242033
vn  -1.458629 -0.582926 -1.069132
vn  -1.458629 -0.582926 -1.367576
vn  -0.017367 0.152104 0.988212
vn  0 0 -1
vn  0.90665 3.385173 1.155189
vn  0.908986 2.851869 -1.245268
vn  -0.908982 2.85187 -1.243975
vn  -0.906648 3.38467 1.154104
vn  1.385245 -0.740607 -1.242031
vn  1.70662 -0.912426 1.201188
vn  1.691031 -0.904092 1.142922
vn  1.385245 -0.740607 -1.179069
vn  -1.847878 -0.738482 1.311621
vn  -1.458629 -0.582924 -1.367578
vn  -1.45863 -0.582925 -1.069131
vn  -1.766574 -0.70599 1.037658
vn  1.570796 -1.570797 0.000001
vn  0.254448 -1.986271 0
vn  0.418375 -2.310643 0.948361
vn  0 -3.141591 -1.074651
vn  -1.570796 -1.986271 -0.000001
vn  -0.254448 -1.570797 0
vn  2.50427 1.8608 0.000001
vn  1.030103 1.324902 0
vn  -2.445958 1.605276 -0.000001
vn  -1.034443 1.310336 0
vn  -0.017367 0.152104 0.988212
vn  0 0 -1
# 88 vertex normals

g sofa-03
usemtl misc_h
s 1
f -79/-145/-79 -70/-124/-70 -69/-123/-69
f -69/-123/-69 -80/-146/-80 -79/-145/-79
s 3
f -82/-140/-82 -77/-135/-77 -78/-136/-78
f -78/-136/-78 -81/-139/-81 -82/-140/-82
s 5
f -85/-150/-85 -87/-152/-87 -75/-131/-75
f -85/-150/-85 -75/-131/-75 -74/-129/-74
f -85/-150/-85 -74/-129/-74 -83/-143/-83
s 3
f -77/-135/-77 -79/-145/-79 -80/-146/-80
f -80/-146/-80 -78/-136/-78 -77/-135/-77
s 1
f -88/-156/-88 -76/-134/-76 -71/-125/-71
f -71/-125/-71 -81/-141/-81 -88/-156/-88
f -83/-137/-83 -74/-130/-74 -70/-124/-70
f -70/-124/-70 -79/-145/-79 -83/-137/-83
s 3
f -87/-148/-87 -85/-149/-85 -77/-135/-77
f -77/-135/-77 -82/-140/-82 -87/-148/-87
f -86/-154/-86 -88/-147/-88 -81/-139/-81
f -81/-139/-81 -78/-136/-78 -86/-154/-86
f -85/-149/-85 -83/-137/-83 -79/-145/-79
f -79/-145/-79 -77/-135/-77 -85/-149/-85
f -84/-138/-84 -86/-154/-86 -78/-136/-78
f -78/-136/-78 -80/-146/-80 -84/-138/-84
s 1
f -82/-142/-82 -81/-141/-81 -71/-125/-71
f -71/-125/-71 -72/-126/-72 -82/-142/-82
s 5
f -88/-153/-88 -86/-151/-86 -84/-144/-84
f -88/-153/-88 -84/-144/-84 -73/-127/-73
f -88/-153/-88 -73/-127/-73 -76/-133/-76
s 1
f -87/-155/-87 -82/-142/-82 -72/-126/-72
f -72/-126/-72 -75/-132/-75 -87/-155/-87
f -84/-138/-84 -80/-146/-80 -69/-123/-69
f -69/-123/-69 -73/-128/-73 -84/-138/-84
s 3
f -59/-99/-59 -50/-84/-50 -49/-83/-49
f -49/-83/-49 -60/-100/-60 -59/-99/-59
f -55/-105/-55 -69/-82/-69 -70/-81/-70
f -70/-81/-70 -56/-106/-56 -55/-105/-55
s 1
f -58/-96/-58 -53/-89/-53 -54/-90/-54
f -54/-90/-54 -57/-95/-57 -58/-96/-58
s 5
f -63/-107/-63 -67/-114/-67 -51/-101/-51
f -63/-107/-63 -51/-101/-51 -73/-127/-73
f -63/-107/-63 -73/-127/-73 -61/-103/-61
s 1
f -60/-100/-60 -72/-91/-72 -71/-92/-71
f -71/-92/-71 -59/-99/-59 -60/-100/-60
s 5
f -66/-113/-66 -52/-102/-52 -74/-129/-74
f -74/-129/-74 -75/-131/-75 -66/-113/-66
s 3
f -53/-89/-53 -55/-105/-55 -56/-106/-56
f -56/-106/-56 -54/-90/-54 -53/-89/-53
f -65/-119/-65 -51/-87/-51 -50/-84/-50
f -50/-84/-50 -59/-99/-59 -65/-119/-65
f -68/-122/-68 -52/-88/-52 -49/-83/-49
f -49/-83/-49 -57/-97/-57 -68/-122/-68
f -61/-93/-61 -73/-86/-73 -69/-82/-69
f -69/-82/-69 -55/-105/-55 -61/-93/-61
s 1
f -67/-110/-67 -63/-111/-63 -53/-89/-53
f -53/-89/-53 -58/-96/-58 -67/-110/-67
f -64/-118/-64 -68/-108/-68 -57/-95/-57
f -57/-95/-57 -54/-90/-54 -64/-118/-64
f -66/-120/-66 -75/-116/-75 -72/-91/-72
f -72/-91/-72 -60/-100/-60 -66/-120/-66
f -76/-115/-76 -65/-119/-65 -59/-99/-59
f -59/-99/-59 -71/-92/-71 -76/-115/-76
s 3
f -63/-111/-63 -61/-93/-61 -55/-105/-55
f -55/-105/-55 -53/-89/-53 -63/-111/-63
f -62/-94/-62 -64/-118/-64 -54/-90/-54
f -54/-90/-54 -56/-106/-56 -62/-94/-62
f -58/-98/-58 -57/-97/-57 -49/-83/-49
f -49/-83/-49 -50/-84/-50 -58/-98/-58
s 5
f -65/-112/-65 -76/-133/-76 -73/-127/-73
f -73/-127/-73 -51/-101/-51 -65/-112/-65
f -68/-117/-68 -64/-109/-64 -62/-104/-62
f -68/-117/-68 -62/-104/-62 -74/-129/-74
f -68/-117/-68 -74/-129/-74 -52/-102/-52
s 3
f -67/-121/-67 -58/-98/-58 -50/-84/-50
f -50/-84/-50 -51/-87/-51 -67/-121/-67
f -66/-120/-66 -60/-100/-60 -49/-83/-49
f -49/-83/-49 -52/-88/-52 -66/-120/-66
f -62/-94/-62 -56/-106/-56 -70/-81/-70
f -70/-81/-70 -74/-85/-74 -62/-94/-62
s 1
f -37/-52/-37 -36/-56/-36 -35/-64/-35
f -35/-64/-35 -38/-63/-38 -37/-52/-37
s 3
f -29/-42/-29 -33/-47/-33 -34/-48/-34
f -34/-48/-34 -30/-43/-30 -29/-42/-29
s 1
f -32/-45/-32 -27/-60/-27 -28/-65/-28
f -28/-65/-28 -31/-44/-31 -32/-45/-32
s 5
f -45/-77/-45 -47/-54/-47 -39/-51/-39
f -39/-51/-39 -40/-58/-40 -45/-77/-45
f -48/-80/-48 -46/-78/-46 -40/-58/-40
f -40/-58/-40 -39/-51/-39 -48/-80/-48
s 1
f -43/-75/-43 -41/-73/-41 -36/-56/-36
f -36/-56/-36 -37/-52/-37 -43/-75/-43
f -42/-74/-42 -44/-76/-44 -38/-50/-38
f -38/-50/-38 -35/-53/-35 -42/-74/-42
s 9
f -34/-66/-34 -33/-49/-33 -26/-59/-26
f -32/-46/-32 -31/-41/-31 -26/-59/-26
f -28/-41/-28 -27/-46/-27 -25/-59/-25
f -29/-49/-29 -30/-66/-30 -25/-59/-25
f -26/-59/-26 -37/-57/-37 -38/-55/-38
s 1
f -41/-73/-41 -43/-75/-43 -33/-47/-33
f -33/-47/-33 -29/-42/-29 -41/-73/-41
s 3
f -47/-68/-47 -45/-67/-45 -30/-43/-30
f -30/-43/-30 -34/-48/-34 -47/-68/-47
s 9
f -25/-59/-25 -35/-55/-35 -36/-57/-36
s 1
f -44/-76/-44 -42/-74/-42 -27/-60/-27
f -27/-60/-27 -32/-45/-32 -44/-76/-44
f -46/-61/-46 -48/-62/-48 -31/-44/-31
f -31/-44/-31 -28/-65/-28 -46/-61/-46
s 9
f -43/-69/-43 -37/-57/-37 -26/-59/-26
f -26/-59/-26 -33/-49/-33 -43/-69/-43
f -39/-71/-39 -47/-79/-47 -34/-66/-34
f -34/-66/-34 -26/-59/-26 -39/-71/-39
f -48/-72/-48 -39/-71/-39 -26/-59/-26
f -26/-59/-26 -31/-41/-31 -48/-72/-48
f -38/-55/-38 -44/-70/-44 -32/-46/-32
f -32/-46/-32 -26/-59/-26 -38/-55/-38
f -42/-70/-42 -35/-55/-35 -25/-59/-25
f -25/-59/-25 -27/-46/-27 -42/-70/-42
f -40/-71/-40 -46/-72/-46 -28/-41/-28
f -28/-41/-28 -25/-59/-25 -40/-71/-40
f -45/-79/-45 -40/-71/-40 -25/-59/-25
f -25/-59/-25 -30/-66/-30 -45/-79/-45
f -36/-57/-36 -41/-69/-41 -29/-49/-29
f -29/-49/-29 -25/-59/-25 -36/-57/-36
s 1
f -24/-40/-24 -23/-39/-23 -22/-38/-22
f -22/-38/-22 -21/-37/-21 -24/-40/-24
s 3
f -20/-36/-20 -19/-35/-19 -18/-34/-18
f -18/-34/-18 -17/-33/-17 -20/-36/-20
s 1
f -16/-32/-16 -15/-31/-15 -14/-30/-14
f -14/-30/-14 -13/-29/-13 -16/-32/-16
s 5
f -12/-28/-12 -11/-27/-11 -10/-26/-10
f -10/-26/-10 -9/-25/-9 -12/-28/-12
f -8/-24/-8 -7/-23/-7 -9/-25/-9
f -9/-25/-9 -10/-26/-10 -8/-24/-8
s 1
f -6/-22/-6 -5/-21/-5 -23/-39/-23
f -23/-39/-23 -24/-40/-24 -6/-22/-6
f -4/-20/-4 -3/-19/-3 -21/-18/-21
f -21/-18/-21 -22/-17/-22 -4/-20/-4
s 9
f -18/-16/-18 -19/-15/-19 -2/-14/-2
f -16/-13/-16 -13/-12/-13 -2/-14/-2
f -14/-12/-14 -15/-13/-15 -1/-14/-1
f -20/-15/-20 -17/-16/-17 -1/-14/-1
f -2/-14/-2 -24/-11/-24 -21/-10/-21
s 1
f -5/-21/-5 -6/-22/-6 -19/-35/-19
f -19/-35/-19 -20/-36/-20 -5/-21/-5
s 3
f -11/-9/-11 -12/-8/-12 -17/-33/-17
f -17/-33/-17 -18/-34/-18 -11/-9/-11
s 9
f -1/-14/-1 -22/-10/-22 -23/-11/-23
s 1
f -3/-19/-3 -4/-20/-4 -15/-31/-15
f -15/-31/-15 -16/-32/-16 -3/-19/-3
f -7/-7/-7 -8/-6/-8 -13/-29/-13
f -13/-29/-13 -14/-30/-14 -7/-7/-7
s 9
f -6/-5/-6 -24/-11/-24 -2/-14/-2
f -2/-14/-2 -19/-15/-19 -6/-5/-6
f -10/-4/-10 -11/-3/-11 -18/-16/-18
f -18/-16/-18 -2/-14/-2 -10/-4/-10
f -8/-2/-8 -10/-4/-10 -2/-14/-2
f -2/-14/-2 -13/-12/-13 -8/-2/-8
f -21/-10/-21 -3/-1/-3 -16/-13/-16
f -16/-13/-16 -2/-14/-2 -21/-10/-21
f -4/-1/-4 -22/-10/-22 -1/-14/-1
f -1/-14/-1 -15/-13/-15 -4/-1/-4
f -9/-4/-9 -7/-2/-7 -14/-12/-14
f -14/-12/-14 -1/-14/-1 -9/-4/-9
f -12/-3/-12 -9/-4/-9 -1/-14/-1
f -1/-14/-1 -17/-16/-17 -12/-3/-12
f -23/-11/-23 -5/-5/-5 -20/-15/-20
f -20/-15/-20 -1/-14/-1 -23/-11/-23
# 164 faces

g
