# Max2Obj Version 4.0 Mar 10th, 2001
#
mtllib ./sofa-01.mtl
g
# object sofa-01 to come ...
#
v  -0.765696 0.009747 0.379382
v  0.753038 0.009747 0.379382
v  -0.765696 0.279051 0.322586
v  0.753038 0.279051 0.322586
v  -0.765696 0.33478 0.266857
v  0.753038 0.33478 0.266857
v  0.246793 0.009747 0.425001
v  -0.259451 0.009747 0.425001
v  -0.259451 0.33478 0.312476
v  0.246794 0.33478 0.312476
v  -0.259451 0.279051 0.368205
v  0.246793 0.279051 0.368205
v  -0.765696 0.043979 -0.065385
v  0.753039 0.043979 -0.065385
v  0.753039 0.261349 -0.116817
v  -0.765696 0.261349 -0.116818
v  0.246794 0.043979 -0.024401
v  -0.259451 0.043979 -0.024401
v  0.246794 0.283812 -0.079794
v  -0.259451 0.283812 -0.079794
v  0.753039 0.706903 -0.439883
v  -0.765696 0.706903 -0.439884
v  0.753039 0.014039 -0.310739
v  -0.765696 0.014039 -0.31074
v  0.753039 0.748039 -0.303582
v  -0.765696 0.748039 -0.303582
v  0.753039 0.702834 -0.239022
v  -0.765696 0.702834 -0.239023
v  0.246794 0.014039 -0.260221
v  -0.259451 0.014039 -0.260221
v  -0.259451 0.751829 -0.397287
v  0.246794 0.751829 -0.397287
v  0.246794 0.747759 -0.196426
v  -0.259451 0.747759 -0.196426
v  0.246794 0.792964 -0.260985
v  -0.259451 0.792964 -0.260986
v  0.753039 0.31242 -0.292766
v  -0.765696 0.270302 -0.314446
v  -0.259451 0.315228 -0.27185
v  0.246794 0.357346 -0.25017
v  -0.982658 0.009294 0.389446
v  -0.754001 0.009294 0.389446
v  -0.982658 0.009294 -0.422624
v  -0.754001 0.009294 -0.422624
v  -1.005985 0.429981 0.376417
v  -0.730674 0.429981 0.376417
v  -1.005985 0.429981 -0.422624
v  -0.730674 0.429981 -0.422624
v  -0.868329 0.009294 -0.422624
v  -0.86833 0.009294 0.439883
v  -0.914215 0.495096 0.376871
v  -0.822444 0.495096 0.376871
v  -0.822444 0.495096 -0.422624
v  -0.914215 0.495096 -0.422624
v  -0.754001 0.220502 0.389446
v  -0.694884 0.331076 0.389446
v  -1.026848 0.331076 0.389446
v  -0.982658 0.220502 0.389446
v  -0.754001 0.220502 -0.422624
v  -0.694884 0.331076 -0.422624
v  -0.982658 0.220502 -0.422624
v  -1.026848 0.331076 -0.422624
v  -0.868232 0.359444 0.439883
v  -0.868231 0.359444 -0.422624
v  0.899287 0.495096 0.376871
v  0.899287 0.495096 -0.422624
v  0.807517 0.495096 -0.422624
v  0.807517 0.495096 0.376871
v  1.026848 0.331076 -0.422624
v  1.026848 0.331076 0.389446
v  0.96773 0.220502 0.389446
v  0.96773 0.220502 -0.422624
v  0.694884 0.331076 0.389446
v  0.694884 0.331076 -0.422624
v  0.739074 0.220502 -0.422624
v  0.739073 0.220502 0.389446
v  0.96773 0.009294 -0.422624
v  0.96773 0.009294 0.389446
v  0.853402 0.009294 0.439883
v  0.853402 0.009294 -0.422624
v  0.739073 0.009294 0.389446
v  0.739074 0.009294 -0.422624
v  0.991057 0.429981 0.376417
v  0.991058 0.429981 -0.422624
v  0.715746 0.429981 -0.422624
v  0.715746 0.429981 0.376417
v  0.8535 0.359444 0.439883
v  0.8535 0.359444 -0.422624
# 88 vertices

vt  0.605669 0.421795 0
vt  0.858188 0.421795 0
vt  0.605481 0.334969 0
vt  0.622451 0.285118 0
vt  0.622451 0.285118 1
vt  0.632874 0.334538 0
vt  0.632874 0.334538 1
vt  0.858302 0.334921 0
vt  0.860863 0.283125 0
vt  0.604361 0.283151 0
vt  0.689843 0.349207 0
vt  0.774016 0.349207 0
vt  0.643101 0.344765 0
vt  0.643101 0.344765 1
vt  0.774015 0.421859 0
vt  0.689842 0.421859 0
vt  0.77652 0.283273 0
vt  0.688851 0.283305 0
vt  0.60567 0.35025 0
vt  0.858189 0.35025 0
vt  0.689813 0.335126 0
vt  0.774016 0.335073 0
vt  0.605669 0.421239 0
vt  0.704071 0.2914 0
vt  0.858188 0.421239 0
vt  0.704071 0.2914 1
vt  0.858187 0.420517 0
vt  0.713509 0.33129 1
vt  0.605669 0.420517 0
vt  0.713509 0.33129 0
vt  0.774015 0.421302 0
vt  0.689842 0.421302 0
vt  0.774016 0.420526 0
vt  0.689843 0.420526 0
vt  0.605669 0.421795 0
vt  0.858188 0.421795 0
vt  0.605669 0.420682 0
vt  0.858188 0.420682 0
vt  0.604962 0.360735 0
vt  0.772795 0.390116 1
vt  0.605669 0.420275 0
vt  0.858187 0.420275 0
vt  0.772795 0.390116 0
vt  0.749096 0.285906 1
vt  0.749096 0.285906 0
vt  0.857783 0.360791 0
vt  0.860344 0.420129 0
vt  0.747782 0.397665 1
vt  0.603842 0.4201 0
vt  0.747782 0.397665 0
vt  0.689843 0.349207 0
vt  0.774016 0.349207 0
vt  0.735935 0.389369 1
vt  0.735935 0.389369 0
vt  0.745797 0.340662 1
vt  0.749776 0.332933 0
vt  0.689842 0.420682 0
vt  0.774015 0.420682 0
vt  0.774015 0.421859 0
vt  0.689842 0.421859 0
vt  0.776002 0.41996 0
vt  0.688332 0.419923 0
vt  0.60567 0.35025 0
vt  0.858189 0.35025 0
vt  0.774015 0.420275 0
vt  0.689842 0.420275 0
vt  0.689294 0.360555 0
vt  0.773497 0.360617 0
vt  0.605669 0.421239 0
vt  0.858188 0.421239 0
vt  0.858187 0.420517 0
vt  0.605669 0.420517 0
vt  0.774015 0.421302 0
vt  0.689842 0.421302 0
vt  0.774016 0.420526 0
vt  0.689843 0.420526 0
vt  0.30311 0.827869 0
vt  0.891318 0.359667 0
vt  0.301705 0.990331 0
vt  0.241055 0.989806 0
vt  0.982626 0.394854 0
vt  0.972477 0.391793 0
vt  0.982626 0.294621 0
vt  0.966684 0.297694 0
vt  0.919494 0.359406 0
vt  0.907059 0.35943 0
vt  0.922378 0.417201 0
vt  0.888322 0.415394 0
vt  0.925102 0.393415 0
vt  0.925102 0.297694 0
vt  0.889115 0.39335 0
vt  0.955397 0.294621 0
vt  0.996868 0.297694 0
vt  0.996868 0.391838 0
vt  0.937868 0.393341 0
vt  0.937868 0.297694 0
vt  0.974897 0.294621 0
vt  0.90071 0.397153 0
vt  0.260463 0.989974 0
vt  0.902436 0.423297 0
vt  0.987346 0.297694 0
vt  0.912934 0.424526 0
vt  0.24247 0.826194 0
vt  0.993889 0.294621 0
vt  0.980705 0.391825 0
vt  0.276461 0.823419 0
vt  0.9939 0.394899 0
vt  0.885659 0.407557 0
vt  0.941569 0.393415 0
vt  0.955322 0.393415 0
vt  0.92443 0.406445 0
vt  0.974844 0.396069 0
vt  0.955451 0.396488 0
vt  0.946792 0.297694 0
vt  0.960677 0.297694 0
vt  0.919386 0.381032 0
vt  0.303156 0.822524 0
vt  0.887969 0.356136 0
vt  0.30166 0.995551 0
vt  0.233732 0.994963 0
vt  0.982626 0.394854 0
vt  0.969303 0.394854 0
vt  0.982626 0.294621 0
vt  0.969303 0.294621 0
vt  0.919512 0.355844 0
vt  0.903687 0.355874 0
vt  0.922378 0.417201 0
vt  0.885656 0.417626 0
vt  0.922615 0.396488 0
vt  0.922615 0.294621 0
vt  0.888482 0.387046 0
vt  0.95931 0.294621 0
vt  0.996868 0.294621 0
vt  0.996868 0.394912 0
vt  0.937868 0.396488 0
vt  0.937868 0.294621 0
vt  0.97216 0.294621 0
vt  0.90399 0.406829 0
vt  0.267696 0.995257 0
vt  0.89796 0.426814 0
vt  0.983878 0.294621 0
vt  0.910168 0.426672 0
vt  0.235228 0.821936 0
vt  0.997201 0.294621 0
vt  0.983878 0.394911 0
vt  0.269239 0.81686 0
vt  0.997201 0.394912 0
vt  0.880775 0.403257 0
vt  0.944056 0.396488 0
vt  0.958057 0.396488 0
vt  0.925137 0.402735 0
vt  0.97216 0.396488 0
vt  0.95931 0.396488 0
vt  0.944056 0.294621 0
vt  0.958057 0.294621 0
vt  0.919358 0.386559 0
vt  0.689843 0.349207 0
vt  0.774016 0.349207 0
vt  0.735935 0.389369 1
vt  0.735935 0.389369 0
vt  0.745797 0.340662 1
vt  0.749776 0.332933 0
vt  0.689842 0.420682 0
vt  0.774015 0.420682 0
vt  0.774015 0.421859 0
vt  0.689842 0.421859 0
vt  0.776002 0.41996 0
vt  0.688332 0.419923 0
vt  0.60567 0.35025 0
vt  0.858189 0.35025 0
vt  0.774015 0.420275 0
vt  0.689842 0.420275 0
vt  0.689294 0.360555 0
vt  0.773497 0.360617 0
vt  0.605669 0.421239 0
vt  0.858188 0.421239 0
vt  0.858187 0.420517 0
vt  0.605669 0.420517 0
vt  0.774015 0.421302 0
vt  0.689842 0.421302 0
vt  0.774016 0.420526 0
vt  0.689843 0.420526 0
vt  0.303156 0.822524 0
vt  0.887969 0.356136 0
vt  0.30166 0.995551 0
vt  0.233732 0.994963 0
vt  0.982626 0.394854 0
vt  0.969303 0.394854 0
vt  0.982626 0.294621 0
vt  0.969303 0.294621 0
vt  0.919512 0.355844 0
vt  0.903687 0.355874 0
vt  0.922378 0.417201 0
vt  0.885656 0.417626 0
vt  0.922615 0.396488 0
vt  0.922615 0.294621 0
vt  0.888482 0.387046 0
vt  0.95931 0.294621 0
vt  0.996868 0.294621 0
vt  0.996868 0.394912 0
vt  0.937868 0.396488 0
vt  0.937868 0.294621 0
vt  0.97216 0.294621 0
vt  0.90399 0.406829 0
vt  0.267696 0.995257 0
vt  0.89796 0.426814 0
vt  0.983878 0.294621 0
vt  0.910168 0.426672 0
vt  0.235228 0.821936 0
vt  0.997201 0.294621 0
vt  0.983878 0.394911 0
vt  0.269239 0.81686 0
vt  0.997201 0.394912 0
vt  0.880775 0.403257 0
vt  0.940355 0.396488 0
vt  0.940355 0.294621 0
vt  0.919494 0.359406 0
vt  0.89136 0.359645 0
vt  0.966684 0.392138 0
vt  0.888363 0.415266 0
vt  0.972477 0.297694 0
vt  0.90034 0.359495 0
vt  0.275019 0.9901 0
vt  0.261904 0.823293 0
vt  0.900456 0.359514 0
vt  0.90702 0.359433 0
vt  0.905665 0.423259 0
vt  0.997201 0.391838 0
vt  0.987346 0.391838 0
vt  0.89621 0.421291 0
vt  0.896236 0.421148 0
vt  0.902489 0.423164 0
vt  0.980705 0.297694 0
vt  0.912943 0.42452 0
vt  0.997201 0.297694 0
vt  0.905611 0.423128 0
vt  0.946792 0.393415 0
vt  0.891695 0.385653 0
vt  0.885747 0.400434 0
vt  0.960677 0.393011 0
vt  0.97216 0.393415 0
vt  0.969462 0.396488 0
vt  0.923924 0.399339 0
vt  0.962316 0.396488 0
vt  0.92071 0.390344 0
vt  0.95931 0.393415 0
vt  0.891714 0.385643 0
vt  0.889138 0.393388 0
vt  0.941569 0.297694 0
vt  0.955322 0.297694 0
vt  0.885787 0.400436 0
vt  0.885781 0.407654 0
vt  0.919386 0.380954 0
vt  0.95931 0.297694 0
vt  0.962325 0.294621 0
vt  0.920714 0.390355 0
vt  0.924416 0.406518 0
vt  0.96946 0.294621 0
vt  0.923923 0.399337 0
vt  0.97216 0.297694 0
vt  0.895892 0.401995 0
vt  0.899703 0.409715 0
vt  0.904031 0.418012 0
vt  0.90826 0.409541 0
vt  0.912165 0.401615 0
vt  0.907234 0.397061 0
vt  0.907248 0.396877 0
vt  0.912181 0.40161 0
vt  0.908309 0.409636 0
vt  0.904031 0.418054 0
vt  0.899663 0.40979 0
vt  0.895881 0.401989 0
vt  0.900573 0.396943 0
vt  0.983878 0.394911 0
vt  0.983878 0.294621 0
vt  0.996868 0.294621 0
vt  0.996868 0.394912 0
vt  0.958057 0.294621 0
vt  0.958057 0.396488 0
vt  0.944056 0.396488 0
vt  0.944056 0.294621 0
vt  0.97216 0.396488 0
vt  0.97216 0.294621 0
vt  0.95931 0.294621 0
vt  0.95931 0.396488 0
vt  0.233732 0.994963 0
vt  0.235228 0.821936 0
vt  0.269239 0.81686 0
vt  0.267696 0.995257 0
vt  0.303156 0.822524 0
vt  0.30166 0.995551 0
vt  0.969303 0.394854 0
vt  0.969303 0.294621 0
vt  0.982626 0.294621 0
vt  0.982626 0.394854 0
vt  0.997201 0.394912 0
vt  0.997201 0.294621 0
vt  0.888482 0.387046 0
vt  0.880775 0.403257 0
vt  0.90399 0.406829 0
vt  0.925137 0.402735 0
vt  0.919358 0.386559 0
vt  0.89796 0.426814 0
vt  0.910168 0.426672 0
vt  0.922615 0.396488 0
vt  0.922615 0.294621 0
vt  0.937868 0.294621 0
vt  0.937868 0.396488 0
vt  0.885656 0.417626 0
vt  0.903687 0.355874 0
vt  0.887969 0.356136 0
vt  0.919512 0.355844 0
vt  0.922378 0.417201 0
# 313 texture vertices

vn  -0.128795 -1.328809 1.422285
vn  1.381765 0.223835 1.061331
vn  -0.240265 1.472378 2.66628
vn  2.700388 0.319092 1.512994
vn  -0.547965 1.06366 1.063659
vn  2.195899 0.948385 -0.18151
vn  0.136338 -0.082079 2.99473
vn  0.010137 -1.152722 1.424488
vn  -0.015452 0.942692 0.333307
vn  0.015451 0.942692 0.333307
vn  -0.000001 1.434873 2.647707
vn  -0.000001 1.325666 2.538501
vn  -1.870693 -1.485831 -0.11436
vn  1.870694 -1.485831 -0.114359
vn  1.572015 1.463605 -0.280118
vn  -1.572015 1.463604 -0.280118
vn  -0.010825 -4.771039 -0.047478
vn  0.010825 -3.648258 -0.190029
vn  0.033179 0.835952 0.547799
vn  -0.033179 0.835952 0.547799
vn  -0.088646 0.835992 -1.935248
vn  -1.656886 1.148427 -0.346594
vn  1.399538 -1.045987 0.127642
vn  0.123595 -1.496633 -1.387194
vn  0.287957 2.864821 0.400795
vn  -2.339105 1.601961 -0.483471
vn  0.781379 1.29196 0.904641
vn  -2.521434 0.225967 0.81634
vn  0.000001 -1.07681 -1.427572
vn  0.044864 -1.578465 -1.3725
vn  -0.101482 2.863349 -1.587333
vn  -0.165687 0.976744 -1.867113
vn  0.058792 0.568401 0.820648
vn  -0.058793 0.568401 0.820648
vn  0 2.790524 0.447127
vn  0 2.664013 0.358543
vn  1.182771 -0.52706 -1.413265
vn  -1.754747 -0.023891 -1.651589
vn  0.077803 -0.156217 -0.984654
vn  -0.039528 -0.165655 -0.985391
vn  -1.570796 -1.986272 0
vn  0.254448 -1.986272 0
vn  -0.254448 -1.570797 0
vn  1.570796 -1.570796 0.000001
vn  -1.034444 1.310336 0
vn  2.50427 1.860797 0.000001
vn  -2.445958 1.605279 -0.000001
vn  1.030102 1.324902 0
vn  0 -3.141592 -1.074651
vn  0.418375 -2.310642 0.948361
vn  -0.90665 3.384669 1.154104
vn  0.906649 3.385173 1.155189
vn  0.908984 2.851869 -1.245268
vn  -0.908984 2.851869 -1.243974
vn  1.691032 -0.90409 1.142921
vn  1.706622 -0.912425 1.20119
vn  -1.847876 -0.738485 1.31162
vn  -1.766574 -0.705993 1.037659
vn  1.385246 -0.740605 -1.179068
vn  1.385246 -0.740605 -1.242033
vn  -1.458629 -0.582926 -1.069132
vn  -1.458629 -0.582926 -1.367576
vn  -0.017367 0.152104 0.988212
vn  0 0 -1
vn  0.90665 3.385173 1.155189
vn  0.908986 2.851869 -1.245268
vn  -0.908982 2.85187 -1.243975
vn  -0.906648 3.38467 1.154104
vn  1.385245 -0.740607 -1.242031
vn  1.70662 -0.912426 1.201188
vn  1.691031 -0.904092 1.142922
vn  1.385245 -0.740607 -1.179069
vn  -1.847878 -0.738482 1.311621
vn  -1.458629 -0.582924 -1.367578
vn  -1.45863 -0.582925 -1.069131
vn  -1.766574 -0.70599 1.037658
vn  1.570796 -1.570797 0.000001
vn  0.254448 -1.986271 0
vn  0.418375 -2.310643 0.948361
vn  0 -3.141591 -1.074651
vn  -1.570796 -1.986271 -0.000001
vn  -0.254448 -1.570797 0
vn  2.50427 1.8608 0.000001
vn  1.030103 1.324902 0
vn  -2.445958 1.605276 -0.000001
vn  -1.034443 1.310336 0
vn  -0.017367 0.152104 0.988212
vn  0 0 -1
# 88 vertex normals

g sofa-01
usemtl misc_h
s 1
f -79/-302/-79 -70/-281/-70 -69/-280/-69
f -69/-280/-69 -80/-303/-80 -79/-302/-79
s 3
f -82/-297/-82 -77/-292/-77 -78/-293/-78
f -78/-293/-78 -81/-296/-81 -82/-297/-82
s 5
f -85/-307/-85 -87/-309/-87 -75/-288/-75
f -85/-307/-85 -75/-288/-75 -74/-286/-74
f -85/-307/-85 -74/-286/-74 -83/-300/-83
s 3
f -77/-292/-77 -79/-302/-79 -80/-303/-80
f -80/-303/-80 -78/-293/-78 -77/-292/-77
s 1
f -88/-313/-88 -76/-291/-76 -71/-282/-71
f -71/-282/-71 -81/-298/-81 -88/-313/-88
f -83/-294/-83 -74/-287/-74 -70/-281/-70
f -70/-281/-70 -79/-302/-79 -83/-294/-83
s 3
f -87/-305/-87 -85/-306/-85 -77/-292/-77
f -77/-292/-77 -82/-297/-82 -87/-305/-87
f -86/-311/-86 -88/-304/-88 -81/-296/-81
f -81/-296/-81 -78/-293/-78 -86/-311/-86
f -85/-306/-85 -83/-294/-83 -79/-302/-79
f -79/-302/-79 -77/-292/-77 -85/-306/-85
f -84/-295/-84 -86/-311/-86 -78/-293/-78
f -78/-293/-78 -80/-303/-80 -84/-295/-84
s 1
f -82/-299/-82 -81/-298/-81 -71/-282/-71
f -71/-282/-71 -72/-283/-72 -82/-299/-82
s 5
f -88/-310/-88 -86/-308/-86 -84/-301/-84
f -88/-310/-88 -84/-301/-84 -73/-284/-73
f -88/-310/-88 -73/-284/-73 -76/-290/-76
s 1
f -87/-312/-87 -82/-299/-82 -72/-283/-72
f -72/-283/-72 -75/-289/-75 -87/-312/-87
f -84/-295/-84 -80/-303/-80 -69/-280/-69
f -69/-280/-69 -73/-285/-73 -84/-295/-84
s 3
f -59/-256/-59 -50/-241/-50 -49/-240/-49
f -49/-240/-49 -60/-257/-60 -59/-256/-59
f -55/-262/-55 -69/-239/-69 -70/-238/-70
f -70/-238/-70 -56/-263/-56 -55/-262/-55
s 1
f -58/-253/-58 -53/-246/-53 -54/-247/-54
f -54/-247/-54 -57/-252/-57 -58/-253/-58
s 5
f -63/-264/-63 -67/-271/-67 -51/-258/-51
f -63/-264/-63 -51/-258/-51 -73/-284/-73
f -63/-264/-63 -73/-284/-73 -61/-260/-61
s 1
f -60/-257/-60 -72/-248/-72 -71/-249/-71
f -71/-249/-71 -59/-256/-59 -60/-257/-60
s 5
f -66/-270/-66 -52/-259/-52 -74/-286/-74
f -74/-286/-74 -75/-288/-75 -66/-270/-66
s 3
f -53/-246/-53 -55/-262/-55 -56/-263/-56
f -56/-263/-56 -54/-247/-54 -53/-246/-53
f -65/-276/-65 -51/-244/-51 -50/-241/-50
f -50/-241/-50 -59/-256/-59 -65/-276/-65
f -68/-279/-68 -52/-245/-52 -49/-240/-49
f -49/-240/-49 -57/-254/-57 -68/-279/-68
f -61/-250/-61 -73/-243/-73 -69/-239/-69
f -69/-239/-69 -55/-262/-55 -61/-250/-61
s 1
f -67/-267/-67 -63/-268/-63 -53/-246/-53
f -53/-246/-53 -58/-253/-58 -67/-267/-67
f -64/-275/-64 -68/-265/-68 -57/-252/-57
f -57/-252/-57 -54/-247/-54 -64/-275/-64
f -66/-277/-66 -75/-273/-75 -72/-248/-72
f -72/-248/-72 -60/-257/-60 -66/-277/-66
f -76/-272/-76 -65/-276/-65 -59/-256/-59
f -59/-256/-59 -71/-249/-71 -76/-272/-76
s 3
f -63/-268/-63 -61/-250/-61 -55/-262/-55
f -55/-262/-55 -53/-246/-53 -63/-268/-63
f -62/-251/-62 -64/-275/-64 -54/-247/-54
f -54/-247/-54 -56/-263/-56 -62/-251/-62
f -58/-255/-58 -57/-254/-57 -49/-240/-49
f -49/-240/-49 -50/-241/-50 -58/-255/-58
s 5
f -65/-269/-65 -76/-290/-76 -73/-284/-73
f -73/-284/-73 -51/-258/-51 -65/-269/-65
f -68/-274/-68 -64/-266/-64 -62/-261/-62
f -68/-274/-68 -62/-261/-62 -74/-286/-74
f -68/-274/-68 -74/-286/-74 -52/-259/-52
s 3
f -67/-278/-67 -58/-255/-58 -50/-241/-50
f -50/-241/-50 -51/-244/-51 -67/-278/-67
f -66/-277/-66 -60/-257/-60 -49/-240/-49
f -49/-240/-49 -52/-245/-52 -66/-277/-66
f -62/-251/-62 -56/-263/-56 -70/-238/-70
f -70/-238/-70 -74/-242/-74 -62/-251/-62
s 1
f -37/-169/-37 -36/-173/-36 -35/-181/-35
f -35/-181/-35 -38/-180/-38 -37/-169/-37
s 3
f -29/-159/-29 -33/-164/-33 -34/-165/-34
f -34/-165/-34 -30/-160/-30 -29/-159/-29
s 1
f -32/-162/-32 -27/-177/-27 -28/-182/-28
f -28/-182/-28 -31/-161/-31 -32/-162/-32
s 5
f -45/-194/-45 -47/-171/-47 -39/-168/-39
f -39/-168/-39 -40/-175/-40 -45/-194/-45
f -48/-197/-48 -46/-195/-46 -40/-175/-40
f -40/-175/-40 -39/-168/-39 -48/-197/-48
s 1
f -43/-192/-43 -41/-190/-41 -36/-173/-36
f -36/-173/-36 -37/-169/-37 -43/-192/-43
f -42/-191/-42 -44/-193/-44 -38/-167/-38
f -38/-167/-38 -35/-170/-35 -42/-191/-42
s 9
f -34/-183/-34 -33/-166/-33 -26/-176/-26
f -32/-163/-32 -31/-158/-31 -26/-176/-26
f -28/-158/-28 -27/-163/-27 -25/-176/-25
f -29/-166/-29 -30/-183/-30 -25/-176/-25
f -26/-176/-26 -37/-174/-37 -38/-172/-38
s 1
f -41/-190/-41 -43/-192/-43 -33/-164/-33
f -33/-164/-33 -29/-159/-29 -41/-190/-41
s 3
f -47/-185/-47 -45/-184/-45 -30/-160/-30
f -30/-160/-30 -34/-165/-34 -47/-185/-47
s 9
f -25/-176/-25 -35/-172/-35 -36/-174/-36
s 1
f -44/-193/-44 -42/-191/-42 -27/-177/-27
f -27/-177/-27 -32/-162/-32 -44/-193/-44
f -46/-178/-46 -48/-179/-48 -31/-161/-31
f -31/-161/-31 -28/-182/-28 -46/-178/-46
s 9
f -43/-186/-43 -37/-174/-37 -26/-176/-26
f -26/-176/-26 -33/-166/-33 -43/-186/-43
f -39/-188/-39 -47/-196/-47 -34/-183/-34
f -34/-183/-34 -26/-176/-26 -39/-188/-39
f -48/-189/-48 -39/-188/-39 -26/-176/-26
f -26/-176/-26 -31/-158/-31 -48/-189/-48
f -38/-172/-38 -44/-187/-44 -32/-163/-32
f -32/-163/-32 -26/-176/-26 -38/-172/-38
f -42/-187/-42 -35/-172/-35 -25/-176/-25
f -25/-176/-25 -27/-163/-27 -42/-187/-42
f -40/-188/-40 -46/-189/-46 -28/-158/-28
f -28/-158/-28 -25/-176/-25 -40/-188/-40
f -45/-196/-45 -40/-188/-40 -25/-176/-25
f -25/-176/-25 -30/-183/-30 -45/-196/-45
f -36/-174/-36 -41/-186/-41 -29/-166/-29
f -29/-166/-29 -25/-176/-25 -36/-174/-36
s 1
f -24/-40/-24 -23/-39/-23 -22/-38/-22
f -22/-38/-22 -21/-37/-21 -24/-40/-24
s 3
f -20/-36/-20 -19/-35/-19 -18/-34/-18
f -18/-34/-18 -17/-33/-17 -20/-36/-20
s 1
f -16/-32/-16 -15/-31/-15 -14/-30/-14
f -14/-30/-14 -13/-29/-13 -16/-32/-16
s 5
f -12/-28/-12 -11/-27/-11 -10/-26/-10
f -10/-26/-10 -9/-25/-9 -12/-28/-12
f -8/-24/-8 -7/-23/-7 -9/-25/-9
f -9/-25/-9 -10/-26/-10 -8/-24/-8
s 1
f -6/-22/-6 -5/-21/-5 -23/-39/-23
f -23/-39/-23 -24/-40/-24 -6/-22/-6
f -4/-20/-4 -3/-19/-3 -21/-18/-21
f -21/-18/-21 -22/-17/-22 -4/-20/-4
s 9
f -18/-16/-18 -19/-15/-19 -2/-14/-2
f -16/-13/-16 -13/-12/-13 -2/-14/-2
f -14/-12/-14 -15/-13/-15 -1/-14/-1
f -20/-15/-20 -17/-16/-17 -1/-14/-1
f -2/-14/-2 -24/-11/-24 -21/-10/-21
s 1
f -5/-21/-5 -6/-22/-6 -19/-35/-19
f -19/-35/-19 -20/-36/-20 -5/-21/-5
s 3
f -11/-9/-11 -12/-8/-12 -17/-33/-17
f -17/-33/-17 -18/-34/-18 -11/-9/-11
s 9
f -1/-14/-1 -22/-10/-22 -23/-11/-23
s 1
f -3/-19/-3 -4/-20/-4 -15/-31/-15
f -15/-31/-15 -16/-32/-16 -3/-19/-3
f -7/-7/-7 -8/-6/-8 -13/-29/-13
f -13/-29/-13 -14/-30/-14 -7/-7/-7
s 9
f -6/-5/-6 -24/-11/-24 -2/-14/-2
f -2/-14/-2 -19/-15/-19 -6/-5/-6
f -10/-4/-10 -11/-3/-11 -18/-16/-18
f -18/-16/-18 -2/-14/-2 -10/-4/-10
f -8/-2/-8 -10/-4/-10 -2/-14/-2
f -2/-14/-2 -13/-12/-13 -8/-2/-8
f -21/-10/-21 -3/-1/-3 -16/-13/-16
f -16/-13/-16 -2/-14/-2 -21/-10/-21
f -4/-1/-4 -22/-10/-22 -1/-14/-1
f -1/-14/-1 -15/-13/-15 -4/-1/-4
f -9/-4/-9 -7/-2/-7 -14/-12/-14
f -14/-12/-14 -1/-14/-1 -9/-4/-9
f -12/-3/-12 -9/-4/-9 -1/-14/-1
f -1/-14/-1 -17/-16/-17 -12/-3/-12
f -23/-11/-23 -5/-5/-5 -20/-15/-20
f -20/-15/-20 -1/-14/-1 -23/-11/-23
# 164 faces

g
