# Max2Obj Version 4.0 Mar 10th, 2001
#
mtllib ./sofa-07.mtl
g
# object sofa-07 to come ...
#
v  -1.179726 -0.008275 0.656231
v  -1.20378 0.261029 0.607283
v  -1.243347 0.316758 0.56806
v  -0.485551 -0.008275 0.19555
v  -0.87083 -0.008275 0.372205
v  -0.918385 0.316758 0.270222
v  -0.514674 0.316758 0.086859
v  -0.894833 0.261029 0.320729
v  -0.500251 0.261029 0.140689
v  -1.506908 0.025957 0.332654
v  -1.543425 0.243327 0.296454
v  -0.598529 0.025957 -0.239112
v  -1.116753 0.025957 -0.02681
v  -0.612866 0.26579 -0.292618
v  -1.140163 0.26579 -0.077013
v  -1.7728 0.520096 0.069071
v  -1.681108 -0.003983 0.159967
v  -1.676027 0.561231 0.165004
v  -1.63019 0.516026 0.210443
v  -0.679459 -0.003983 -0.462347
v  -1.216415 -0.003983 -0.240536
v  -1.274342 0.565022 -0.36476
v  -0.714934 0.565022 -0.594742
v  -0.662947 0.560952 -0.400726
v  -1.189454 0.560952 -0.182718
v  -0.679657 0.606157 -0.463085
v  -1.216738 0.606157 -0.241229
v  -1.681973 0.25228 0.158785
v  -1.22133 0.297206 -0.251075
v  -0.676857 0.339324 -0.452638
v  0.004014 -0.008275 0.127094
v  1.073629 -0.008275 0.682479
v  0.004014 0.261029 0.070298
v  1.091303 0.261029 0.655924
v  0.004014 0.316758 0.014569
v  1.137207 0.316758 0.624375
v  0.738345 -0.008275 0.360085
v  0.343901 -0.008275 0.151916
v  0.391456 0.316758 0.049933
v  0.802887 0.316758 0.267909
v  0.367904 0.261029 0.100441
v  0.770922 0.261029 0.31356
v  0.004014 0.025957 -0.317673
v  1.466098 0.025957 0.413893
v  1.508463 0.243327 0.384776
v  0.004014 0.271121 -0.369106
v  1.026984 0.025957 0.002951
v  0.480352 0.025957 -0.26452
v  1.058757 0.26579 -0.042425
v  0.503762 0.26579 -0.314724
v  1.774572 0.520096 0.201883
v  0.004014 0.554811 -0.692172
v  1.668196 -0.003983 0.274994
v  0.004014 -0.003983 -0.563028
v  1.662301 0.561231 0.279046
v  0.004014 0.595946 -0.55587
v  1.609124 0.516026 0.315594
v  0.004014 0.550741 -0.491311
v  1.162246 -0.003983 -0.190222
v  0.571066 -0.003983 -0.455434
v  0.628992 0.565022 -0.579657
v  1.240864 0.565022 -0.302499
v  1.125654 0.560952 -0.137964
v  0.544105 0.560952 -0.397616
v  1.162684 0.606157 -0.190848
v  0.571389 0.606157 -0.456126
v  1.65759 0.252312 0.285092
v  0.004014 0.287236 -0.555894
v  0.57598 0.297206 -0.465973
v  1.15648 0.339324 -0.181988
v  1.159288 0.242511 0.676351
v  1.138576 0.03018 0.69217
v  1.187239 0.278851 0.656141
v  1.559761 0.204099 0.417437
v  1.502083 0.061357 0.459938
v  1.764166 0.498284 0.266419
v  1.698827 0.522814 0.314767
v  1.674568 0.26031 0.332718
v  1.664456 0.492876 0.340199
v  1.671955 0.035497 0.334653
v  -1.273019 0.242511 0.615719
v  -1.232418 0.03018 0.660969
v  -1.297036 0.278851 0.590963
v  -1.599497 0.204099 0.317273
v  -1.550076 0.061357 0.369143
v  -1.774573 0.498284 0.133055
v  -1.718623 0.522814 0.192014
v  -1.697849 0.26031 0.213905
v  -1.68919 0.492876 0.223028
v  -1.695611 0.035497 0.216264
# 90 vertices

vt  -0.042092 0.046997 0.522952
vt  -0.217179 0.04919 0.550376
vt  -0.205617 0.007356 0.397161
vt  -0.205266 0.093411 0.436894
vt  -0.20569 0.121631 0.215853
vt  -0.043505 0.064076 0.450879
vt  -0.224282 0.266835 0.237294
vt  -0.048863 0.006408 0.399016
vt  -0.208375 0.063153 0.422563
vt  -0.028905 0.266835 0.237294
vt  -0.04863 0.092228 0.43921
vt  -0.030451 0.1725 0.515571
vt  -0.0337 0.151406 0.511045
vt  -0.042177 0.089142 0.570857
vt  -0.217184 0.090522 0.606489
vt  -0.222458 0.15107 0.487763
vt  -0.224054 0.171542 0.484947
vt  -0.042203 0.148106 0.4935
vt  -0.042377 0.10791 0.607105
vt  -0.217179 0.109564 0.647266
vt  -0.21725 0.150396 0.533317
vt  -0.042225 0.123629 0.534582
vt  -0.217219 0.125401 0.573487
vt  -0.046693 0.120716 0.217237
vt  0.958875 0.099493 0.540316
vt  0.976117 0.0205 0.503364
vt  0.948509 0.113124 0.544001
vt  0.82481 0.085338 0.530426
vt  0.846333 0.031914 0.513164
vt  0.770618 0.195755 0.558603
vt  0.795033 0.204667 0.567934
vt  0.781949 0.1067 0.529557
vt  0.807876 0.193381 0.566242
vt  0.782926 0.022864 0.495147
vt  0.992384 0.008362 0.44532
vt  0.849119 0.021171 0.44954
vt  0.971417 0.108703 0.488588
vt  0.954677 0.129643 0.493366
vt  0.83367 0.10237 0.479513
vt  0.758778 0.206501 0.500079
vt  0.799719 0.221446 0.515728
vt  0.774308 0.106278 0.467391
vt  0.819111 0.204405 0.513174
vt  0.775421 0.010714 0.428166
vt  0.958875 0.099493 0.540316
vt  0.976117 0.0205 0.503364
vt  0.948509 0.113124 0.544001
vt  0.82481 0.085338 0.530426
vt  0.846333 0.031914 0.513164
vt  0.770618 0.195755 0.558603
vt  0.795033 0.204667 0.567934
vt  0.781949 0.1067 0.529557
vt  0.807876 0.193381 0.566242
vt  0.782926 0.022864 0.495147
vt  0.992384 0.008362 0.44532
vt  0.849119 0.021171 0.44954
vt  0.971417 0.108703 0.488588
vt  0.954677 0.129643 0.493366
vt  0.83367 0.10237 0.479513
vt  0.758778 0.206501 0.500079
vt  0.799719 0.221446 0.515728
vt  0.774308 0.106278 0.467391
vt  0.819111 0.204405 0.513174
vt  0.775421 0.010714 0.428166
# 64 texture vertices

vn  0.925028 -1.324838 1.006119
vn  1.852966 1.445105 2.004215
vn  0.482116 3.509322 1.806447
vn  0.84603 -0.112425 2.924974
vn  0.552694 -1.432151 1.302117
vn  0.155521 0.957929 0.241215
vn  0.080039 0.958285 0.274379
vn  1.101894 1.437062 2.41062
vn  1.068618 1.372329 2.346486
vn  0.022909 -2.766576 0.032326
vn  -0.251828 3.804514 1.518768
vn  0.019793 -4.473478 -0.02551
vn  -0.092425 -3.17336 -0.126294
vn  0.136968 0.840778 0.523768
vn  0.285123 0.831591 0.476615
vn  -0.616873 1.229803 -0.567312
vn  -0.919592 -1.505121 -1.04071
vn  0.083862 2.749345 0.398528
vn  1.619766 2.385415 3.232372
vn  -0.544262 -1.078333 -1.316453
vn  -0.488371 -1.538796 -1.290916
vn  -0.644672 2.481123 -1.001877
vn  -0.339511 0.575822 -1.627552
vn  0.208659 0.633161 0.745365
vn  0.387549 0.63836 0.665059
vn  0.13494 2.818135 0.324808
vn  0.128879 2.689595 0.310225
vn  -3.46745 -1.285509 -2.633736
vn  -0.48285 -0.240284 -0.842093
vn  -0.249626 -0.276784 -0.927942
vn  0.209279 -0.357249 1.498482
vn  -1.063149 -0.510957 1.028091
vn  0.357564 1.383344 2.563193
vn  -1.945417 1.248383 1.822139
vn  0.00873 0.955 0.296477
vn  -0.698572 3.545995 1.730675
vn  -1.7919 -0.038185 2.463925
vn  -0.711453 -1.482063 1.223023
vn  -0.081114 0.962622 0.258419
vn  -0.170655 0.959847 0.222645
vn  -1.244422 1.455986 2.355007
vn  -1.201682 1.365074 2.270686
vn  0.012415 -3.12397 0.095217
vn  -0.083359 -3.121095 0.089074
vn  -0.009089 3.651928 1.720026
vn  0.004988 0.847765 0.530348
vn  0.02486 -4.548457 0.02479
vn  0.04099 -3.136492 -0.1658
vn  -0.295575 0.833066 0.467586
vn  -0.171188 0.815669 0.552611
vn  1.178594 0.557478 -1.259397
vn  -0.274856 0.658882 -1.737281
vn  0.199427 -1.323308 -0.218505
vn  -0.04381 -1.401283 -0.282434
vn  -0.096079 2.873013 0.368786
vn  0.088287 2.829251 0.346319
vn  -1.964144 2.453632 3.154729
vn  -0.008337 0.634978 0.772485
vn  0.580647 -1.013389 -1.305393
vn  0.586401 -1.604429 -1.212546
vn  0.375524 2.567613 -1.117988
vn  0.963159 0.548773 -1.282892
vn  -0.407205 0.638089 0.653472
vn  -0.242425 0.60527 0.758208
vn  -0.12495 2.82804 0.282468
vn  -0.15752 2.687062 0.354785
vn  3.385416 -1.31734 -2.664939
vn  -0.003718 -0.219625 -0.975577
vn  0.308287 -0.234814 -0.921858
vn  0.526564 -0.28274 -0.801741
vn  0.154532 0.216858 0.963894
vn  0.252815 -0.334462 0.907865
vn  0.354948 0.521676 0.775801
vn  1.100425 0.034768 1.635252
vn  1.857799 0.072661 2.765248
vn  0.88059 0.205272 0.427112
vn  0.437597 0.525311 0.729765
vn  0.911007 -0.134888 0.389707
vn  0.190316 0.32746 0.9255
vn  0.806674 -0.371117 0.459944
vn  -0.328536 0.242685 0.912781
vn  -0.298976 -0.237739 0.924172
vn  -0.480033 0.527554 0.700896
vn  -1.37495 0.043411 1.43148
vn  -2.309752 0.07266 2.400638
vn  -0.944198 0.201701 0.260399
vn  -0.564655 0.520325 0.640646
vn  -0.943976 -0.101225 0.314106
vn  -0.361094 0.320837 0.8756
vn  -0.866388 -0.378744 0.325462
# 90 vertex normals

g sofa-07
usemtl 02_-_Default
s 1
f -84/-41/-84 -77/-55/-77 -76/-58/-76
f -76/-58/-76 -85/-60/-85 -84/-41/-84
f -87/-57/-87 -82/-54/-82 -83/-61/-83
f -83/-61/-83 -86/-62/-86 -87/-57/-87
f -82/-54/-82 -84/-41/-84 -85/-60/-85
f -85/-60/-85 -83/-61/-83 -82/-54/-82
f -90/-64/-90 -81/-51/-81 -78/-50/-78
f -78/-50/-78 -86/-63/-86 -90/-64/-90
f -56/-41/-56 -45/-55/-45 -77/-58/-77
f -77/-58/-77 -84/-60/-84 -56/-41/-56
f -60/-57/-60 -58/-54/-58 -82/-61/-82
f -82/-61/-82 -87/-62/-87 -60/-57/-60
f -89/-61/-89 -90/-62/-90 -86/-57/-86
f -86/-57/-86 -83/-54/-83 -89/-61/-89
f -58/-54/-58 -56/-41/-56 -84/-60/-84
f -84/-60/-84 -82/-61/-82 -58/-54/-58
f -88/-60/-88 -89/-61/-89 -83/-54/-83
f -83/-54/-83 -85/-41/-85 -88/-60/-88
f -87/-63/-87 -86/-64/-86 -78/-51/-78
f -78/-51/-78 -79/-50/-79 -87/-63/-87
f -60/-63/-60 -87/-64/-87 -79/-51/-79
f -79/-51/-79 -48/-50/-48 -60/-63/-60
f -88/-60/-88 -85/-41/-85 -76/-55/-76
f -76/-55/-76 -80/-58/-80 -88/-60/-88
f -70/-46/-70 -62/-43/-62 -61/-42/-61
f -61/-42/-61 -71/-45/-71 -70/-46/-70
f -66/-52/-66 -76/-59/-76 -77/-56/-77
f -77/-56/-77 -67/-49/-67 -66/-52/-66
f -69/-55/-69 -64/-53/-64 -65/-48/-65
f -65/-48/-65 -68/-58/-68 -69/-55/-69
f -71/-45/-71 -79/-50/-79 -78/-51/-78
f -78/-51/-78 -70/-46/-70 -71/-45/-71
f -64/-53/-64 -66/-52/-66 -67/-49/-67
f -67/-49/-67 -65/-48/-65 -64/-53/-64
f -74/-46/-74 -63/-43/-63 -62/-42/-62
f -62/-42/-62 -70/-45/-70 -74/-46/-74
f -39/-44/-39 -23/-42/-23 -61/-43/-61
f -61/-43/-61 -68/-47/-68 -39/-44/-39
f -72/-52/-72 -80/-59/-80 -76/-56/-76
f -76/-56/-76 -66/-49/-66 -72/-52/-72
f -75/-55/-75 -73/-53/-73 -64/-48/-64
f -64/-48/-64 -69/-58/-69 -75/-55/-75
f -35/-48/-35 -39/-58/-39 -68/-55/-68
f -68/-55/-68 -65/-53/-65 -35/-48/-35
f -37/-45/-37 -48/-50/-48 -79/-51/-79
f -79/-51/-79 -71/-46/-71 -37/-45/-37
f -81/-51/-81 -74/-46/-74 -70/-45/-70
f -70/-45/-70 -78/-50/-78 -81/-51/-81
f -73/-53/-73 -72/-52/-72 -66/-49/-66
f -66/-49/-66 -64/-48/-64 -73/-53/-73
f -33/-49/-33 -35/-48/-35 -65/-53/-65
f -65/-53/-65 -67/-52/-67 -33/-49/-33
f -69/-47/-69 -68/-44/-68 -61/-42/-61
f -61/-42/-61 -62/-43/-62 -69/-47/-69
f -75/-47/-75 -69/-44/-69 -62/-42/-62
f -62/-42/-62 -63/-43/-63 -75/-47/-75
f -37/-45/-37 -71/-46/-71 -61/-43/-61
f -61/-43/-61 -23/-42/-23 -37/-45/-37
f -33/-49/-33 -67/-52/-67 -77/-59/-77
f -77/-59/-77 -45/-56/-45 -33/-49/-33
f -51/-41/-51 -42/-55/-42 -41/-58/-41
f -41/-58/-41 -52/-60/-52 -51/-41/-51
f -54/-57/-54 -49/-54/-49 -50/-61/-50
f -50/-61/-50 -53/-62/-53 -54/-57/-54
f -49/-54/-49 -51/-41/-51 -52/-60/-52
f -52/-60/-52 -50/-61/-50 -49/-54/-49
f -60/-63/-60 -48/-50/-48 -43/-51/-43
f -43/-51/-43 -53/-64/-53 -60/-63/-60
f -55/-41/-55 -46/-55/-46 -42/-58/-42
f -42/-58/-42 -51/-60/-51 -55/-41/-55
f -59/-57/-59 -57/-54/-57 -49/-61/-49
f -49/-61/-49 -54/-62/-54 -59/-57/-59
f -58/-61/-58 -60/-62/-60 -53/-57/-53
f -53/-57/-53 -50/-54/-50 -58/-61/-58
f -57/-54/-57 -55/-41/-55 -51/-60/-51
f -51/-60/-51 -49/-61/-49 -57/-54/-57
f -56/-60/-56 -58/-61/-58 -50/-54/-50
f -50/-54/-50 -52/-41/-52 -56/-60/-56
f -54/-64/-54 -53/-63/-53 -43/-50/-43
f -43/-50/-43 -44/-51/-44 -54/-64/-54
f -59/-64/-59 -54/-63/-54 -44/-50/-44
f -44/-50/-44 -47/-51/-47 -59/-64/-59
f -56/-60/-56 -52/-41/-52 -41/-55/-41
f -41/-55/-41 -45/-58/-45 -56/-60/-56
f -31/-45/-31 -22/-42/-22 -21/-43/-21
f -21/-43/-21 -32/-46/-32 -31/-45/-31
f -27/-49/-27 -41/-56/-41 -42/-59/-42
f -42/-59/-42 -28/-52/-28 -27/-49/-27
f -30/-58/-30 -25/-48/-25 -26/-53/-26
f -26/-53/-26 -29/-55/-29 -30/-58/-30
f -32/-46/-32 -44/-51/-44 -43/-50/-43
f -43/-50/-43 -31/-45/-31 -32/-46/-32
f -25/-48/-25 -27/-49/-27 -28/-52/-28
f -28/-52/-28 -26/-53/-26 -25/-48/-25
f -37/-45/-37 -23/-42/-23 -22/-43/-22
f -22/-43/-22 -31/-46/-31 -37/-45/-37
f -40/-47/-40 -24/-43/-24 -21/-42/-21
f -21/-42/-21 -29/-44/-29 -40/-47/-40
f -33/-49/-33 -45/-56/-45 -41/-59/-41
f -41/-59/-41 -27/-52/-27 -33/-49/-33
f -39/-58/-39 -35/-48/-35 -25/-53/-25
f -25/-53/-25 -30/-55/-30 -39/-58/-39
f -36/-53/-36 -40/-55/-40 -29/-58/-29
f -29/-58/-29 -26/-48/-26 -36/-53/-36
f -38/-46/-38 -47/-51/-47 -44/-50/-44
f -44/-50/-44 -32/-45/-32 -38/-46/-38
f -48/-50/-48 -37/-45/-37 -31/-46/-31
f -31/-46/-31 -43/-51/-43 -48/-50/-48
f -35/-48/-35 -33/-49/-33 -27/-52/-27
f -27/-52/-27 -25/-53/-25 -35/-48/-35
f -34/-52/-34 -36/-53/-36 -26/-48/-26
f -26/-48/-26 -28/-49/-28 -34/-52/-34
f -30/-44/-30 -29/-47/-29 -21/-43/-21
f -21/-43/-21 -22/-42/-22 -30/-44/-30
f -39/-44/-39 -30/-47/-30 -22/-43/-22
f -22/-43/-22 -23/-42/-23 -39/-44/-39
f -38/-46/-38 -32/-45/-32 -21/-42/-21
f -21/-42/-21 -24/-43/-24 -38/-46/-38
f -34/-52/-34 -28/-49/-28 -42/-56/-42
f -42/-56/-42 -46/-59/-46 -34/-52/-34
f -20/-40/-20 -19/-39/-19 -18/-38/-18
f -18/-38/-18 -19/-39/-19 -17/-37/-17
f -17/-37/-17 -19/-39/-19 -16/-36/-16
f -15/-35/-15 -14/-34/-14 -13/-33/-13
f -13/-33/-13 -14/-34/-14 -17/-37/-17
f -17/-37/-17 -14/-34/-14 -12/-32/-12
f -16/-36/-16 -11/-31/-11 -17/-37/-17
f -13/-33/-13 -17/-37/-17 -11/-31/-11
f -59/-30/-59 -47/-29/-47 -19/-39/-19
f -16/-36/-16 -19/-39/-19 -47/-29/-47
f -57/-28/-57 -59/-30/-59 -20/-40/-20
f -19/-39/-19 -20/-40/-20 -59/-30/-59
f -55/-27/-55 -57/-28/-57 -18/-38/-18
f -20/-40/-20 -18/-38/-18 -57/-28/-57
f -46/-26/-46 -55/-27/-55 -17/-37/-17
f -18/-38/-18 -17/-37/-17 -55/-27/-55
f -40/-25/-40 -36/-24/-36 -15/-35/-15
f -14/-34/-14 -15/-35/-15 -36/-24/-36
f -24/-23/-24 -40/-25/-40 -13/-33/-13
f -15/-35/-15 -13/-33/-13 -40/-25/-40
f -34/-22/-34 -46/-26/-46 -12/-32/-12
f -17/-37/-17 -12/-32/-12 -46/-26/-46
f -36/-24/-36 -34/-22/-34 -14/-34/-14
f -12/-32/-12 -14/-34/-14 -34/-22/-34
f -38/-21/-38 -24/-23/-24 -11/-31/-11
f -13/-33/-13 -11/-31/-11 -24/-23/-24
f -47/-29/-47 -38/-21/-38 -16/-36/-16
f -11/-31/-11 -16/-36/-16 -38/-21/-38
f -9/-19/-9 -10/-20/-10 -8/-18/-8
f -9/-19/-9 -8/-18/-8 -7/-17/-7
f -9/-19/-9 -7/-17/-7 -6/-16/-6
f -4/-14/-4 -5/-15/-5 -3/-13/-3
f -4/-14/-4 -3/-13/-3 -7/-17/-7
f -4/-14/-4 -7/-17/-7 -2/-12/-2
f -1/-11/-1 -6/-16/-6 -7/-17/-7
f -7/-17/-7 -3/-13/-3 -1/-11/-1
f -81/-9/-81 -90/-10/-90 -9/-19/-9
f -9/-19/-9 -6/-16/-6 -81/-9/-81
f -90/-10/-90 -89/-8/-89 -10/-20/-10
f -10/-20/-10 -9/-19/-9 -90/-10/-90
f -89/-8/-89 -88/-7/-88 -8/-18/-8
f -8/-18/-8 -10/-20/-10 -89/-8/-89
f -88/-7/-88 -80/-6/-80 -7/-17/-7
f -7/-17/-7 -8/-18/-8 -88/-7/-88
f -73/-4/-73 -75/-5/-75 -5/-15/-5
f -5/-15/-5 -4/-14/-4 -73/-4/-73
f -75/-5/-75 -63/-3/-63 -3/-13/-3
f -3/-13/-3 -5/-15/-5 -75/-5/-75
f -80/-6/-80 -72/-2/-72 -2/-12/-2
f -2/-12/-2 -7/-17/-7 -80/-6/-80
f -72/-2/-72 -73/-4/-73 -4/-14/-4
f -4/-14/-4 -2/-12/-2 -72/-2/-72
f -63/-3/-63 -74/-1/-74 -1/-11/-1
f -1/-11/-1 -3/-13/-3 -63/-3/-63
f -74/-1/-74 -81/-9/-81 -6/-16/-6
f -6/-16/-6 -1/-11/-1 -74/-1/-74
# 176 faces

g
